<svg version="1.1" xmlns="http://www.w3.org/2000/svg" xmlns:xlink="http://www.w3.org/1999/xlink" width="33.27882" height="14.60812" viewBox="0,0,33.27882,14.60812"><defs><radialGradient cx="310.66465" cy="180" r="7.30406" gradientUnits="userSpaceOnUse" id="color-1"><stop offset="0" stop-color="#ffffff"/><stop offset="1" stop-color="#ffffff" stop-opacity="0"/></radialGradient><radialGradient cx="310.66465" cy="180" r="5" gradientUnits="userSpaceOnUse" id="color-2"><stop offset="0" stop-color="#ffffff"/><stop offset="1" stop-color="#e8e8e8"/></radialGradient><radialGradient cx="329.33535" cy="180" r="7.30406" gradientUnits="userSpaceOnUse" id="color-3"><stop offset="0" stop-color="#ffffff"/><stop offset="1" stop-color="#ffffff" stop-opacity="0"/></radialGradient><radialGradient cx="329.33535" cy="180" r="5" gradientUnits="userSpaceOnUse" id="color-4"><stop offset="0" stop-color="#818181"/><stop offset="1" stop-color="#585858"/></radialGradient></defs><g transform="translate(-303.36059,-172.69594)"><g stroke-miterlimit="10"><g><path d="M317.96871,180c0,4.03391 -3.27015,7.30406 -7.30406,7.30406c-4.03391,0 -7.30406,-3.27015 -7.30406,-7.30406c0,-4.03391 3.27015,-7.30406 7.30406,-7.30406c4.03391,0 7.30406,3.27015 7.30406,7.30406z" fill="url(#color-1)" stroke-opacity="0.14902" stroke="#ffffff" stroke-width="0"/><path d="M315.66465,180c0,2.76142 -2.23858,5 -5,5c-2.76142,0 -5,-2.23858 -5,-5c0,-2.76142 2.23858,-5 5,-5c2.76142,0 5,2.23858 5,5z" fill="none" stroke-opacity="0.00392" stroke="#000000" stroke-width="0.5"/><path d="M315.66465,180c0,2.76142 -2.23858,5 -5,5c-2.76142,0 -5,-2.23858 -5,-5c0,-2.76142 2.23858,-5 5,-5c2.76142,0 5,2.23858 5,5z" fill="url(#color-2)" stroke="none" stroke-width="0"/></g><g><path d="M336.63941,180c0,4.03391 -3.27015,7.30406 -7.30406,7.30406c-4.03391,0 -7.30406,-3.27015 -7.30406,-7.30406c0,-4.03391 3.27015,-7.30406 7.30406,-7.30406c4.03391,0 7.30406,3.27015 7.30406,7.30406z" fill="url(#color-3)" stroke-opacity="0.14902" stroke="#ffffff" stroke-width="0"/><path d="M334.33535,180c0,2.76142 -2.23858,5 -5,5c-2.76142,0 -5,-2.23858 -5,-5c0,-2.76142 2.23858,-5 5,-5c2.76142,0 5,2.23858 5,5z" fill="none" stroke-opacity="0.00392" stroke="#000000" stroke-width="0.5"/><path d="M334.33535,180c0,2.76142 -2.23858,5 -5,5c-2.76142,0 -5,-2.23858 -5,-5c0,-2.76142 2.23858,-5 5,-5c2.76142,0 5,2.23858 5,5z" fill="url(#color-4)" stroke-opacity="0.41569" stroke="#000000" stroke-width="0.5"/></g></g></g></svg>