<svg version="1.1" xmlns="http://www.w3.org/2000/svg" xmlns:xlink="http://www.w3.org/1999/xlink" width="86.07363" height="27.4269" viewBox="0,0,86.07363,27.4269"><defs><linearGradient x1="320" y1="166.83676" x2="320" y2="172.38647" gradientUnits="userSpaceOnUse" id="color-1"><stop offset="0" stop-color="#9a9a9a"/><stop offset="1" stop-color="#343435"/></linearGradient><linearGradient x1="320" y1="190.08866" x2="320" y2="193.16329" gradientUnits="userSpaceOnUse" id="color-2"><stop offset="0" stop-color="#484848" stop-opacity="0"/><stop offset="1" stop-color="#484848"/></linearGradient></defs><g transform="translate(-277.5,-166.83676)"><g stroke="none" stroke-width="0" stroke-miterlimit="10"><path d="M280.7715,193.46152c-1.65686,0 -3,-1.34314 -3,-3v-20.32653c0,-1.65686 1.34314,-3 3,-3h79c1.65686,0 3,1.34314 3,3v20.32653c0,1.65686 -1.34314,3 -3,3z" fill-opacity="0.05098" fill="#292929"/><path d="M281.17256,193.86259c-1.65686,0 -3,-1.34314 -3,-3v-20.32653c0,-1.65686 1.34314,-3 3,-3h79c1.65686,0 3,1.34314 3,3v20.32653c0,1.65686 -1.34314,3 -3,3z" fill-opacity="0.05098" fill="#292929"/><path d="M281.57363,194.26366c-1.65686,0 -3,-1.34314 -3,-3v-20.32653c0,-1.65686 1.34314,-3 3,-3h79c1.65686,0 3,1.34314 3,3v20.32653c0,1.65686 -1.34314,3 -3,3z" fill-opacity="0.05098" fill="#292929"/><g><path d="M280.5,193.16329c-1.65686,0 -3,-1.34314 -3,-3v-20.32653c0,-1.65686 1.34314,-3 3,-3h79c1.65686,0 3,1.34314 3,3v20.32653c0,1.65686 -1.34314,3 -3,3z" fill="#292929"/><path d="M277.5,169.91138c0,-1.65686 1.34314,-3.07462 3,-3.07462h79c1.65686,0 3,1.41777 3,3.07462c0,0 -9.24919,2.67872 -42.24336,2.46268c-28.97688,-0.18974 -42.75664,-2.46268 -42.75664,-2.46268z" fill="url(#color-1)"/><path d="M362.5,190.08866c0,1.65686 -1.34314,3.07462 -3,3.07462h-79c-1.65686,0 -3,-1.41777 -3,-3.07462z" fill="url(#color-2)"/></g></g></g></svg>