<svg version="1.1" xmlns="http://www.w3.org/2000/svg" xmlns:xlink="http://www.w3.org/1999/xlink" width="514.79472" height="298.99847" viewBox="0,0,514.79472,298.99847"><defs><linearGradient x1="314.79359" y1="55.32375" x2="314.79359" y2="142.19275" gradientUnits="userSpaceOnUse" id="color-1"><stop offset="0" stop-color="#fffae0"/><stop offset="1" stop-color="#fff5bf"/></linearGradient><linearGradient x1="169.01407" y1="55.66842" x2="169.01407" y2="142.53742" gradientUnits="userSpaceOnUse" id="color-2"><stop offset="0" stop-color="#fffae0"/><stop offset="1" stop-color="#fff5bf"/></linearGradient><linearGradient x1="460.57309" y1="53.52329" x2="460.57309" y2="140.39228" gradientUnits="userSpaceOnUse" id="color-3"><stop offset="0" stop-color="#fffae0"/><stop offset="1" stop-color="#fff5bf"/></linearGradient><linearGradient x1="241.90382" y1="157.6515" x2="241.90382" y2="244.5205" gradientUnits="userSpaceOnUse" id="color-4"><stop offset="0" stop-color="#fffae0"/><stop offset="1" stop-color="#fff5bf"/></linearGradient><linearGradient x1="387.68334" y1="157.6515" x2="387.68334" y2="244.5205" gradientUnits="userSpaceOnUse" id="color-5"><stop offset="0" stop-color="#fffae0"/><stop offset="1" stop-color="#fff5bf"/></linearGradient><linearGradient x1="106.53714" y1="157.6515" x2="106.53714" y2="244.5205" gradientUnits="userSpaceOnUse" id="color-6"><stop offset="0" stop-color="#fffae0"/><stop offset="1" stop-color="#fff5bf"/></linearGradient><linearGradient x1="533.46285" y1="157.6515" x2="533.46285" y2="244.5205" gradientUnits="userSpaceOnUse" id="color-7"><stop offset="0" stop-color="#fffae0"/><stop offset="1" stop-color="#fff5bf"/></linearGradient><linearGradient x1="314.79359" y1="264.30809" x2="314.79359" y2="351.17709" gradientUnits="userSpaceOnUse" id="color-8"><stop offset="0" stop-color="#fffae0"/><stop offset="1" stop-color="#fff5bf"/></linearGradient><linearGradient x1="169.01407" y1="264.65276" x2="169.01407" y2="351.52176" gradientUnits="userSpaceOnUse" id="color-9"><stop offset="0" stop-color="#fffae0"/><stop offset="1" stop-color="#fff5bf"/></linearGradient><linearGradient x1="460.57309" y1="262.50763" x2="460.57309" y2="349.37663" gradientUnits="userSpaceOnUse" id="color-10"><stop offset="0" stop-color="#fffae0"/><stop offset="1" stop-color="#fff5bf"/></linearGradient><linearGradient x1="169.01407" y1="55.66842" x2="169.01407" y2="142.53742" gradientUnits="userSpaceOnUse" id="color-11"><stop offset="0" stop-color="#2c2c2c"/><stop offset="1" stop-color="#5c5c5c"/></linearGradient><radialGradient cx="184.93189" cy="99.70797" r="26.31746" gradientUnits="userSpaceOnUse" id="color-12"><stop offset="0" stop-color="#ffffff" stop-opacity="0.16863"/><stop offset="1" stop-color="#ffffff" stop-opacity="0"/></radialGradient><radialGradient cx="169.01407" cy="99.10292" r="43.4345" gradientUnits="userSpaceOnUse" id="color-13"><stop offset="0.89387" stop-color="#ffffff" stop-opacity="0"/><stop offset="1" stop-color="#ffffff" stop-opacity="0.32941"/></radialGradient><linearGradient x1="314.79359" y1="55.32375" x2="314.79359" y2="142.19275" gradientUnits="userSpaceOnUse" id="color-14"><stop offset="0" stop-color="#2c2c2c"/><stop offset="1" stop-color="#5c5c5c"/></linearGradient><radialGradient cx="314.79039" cy="97.37318" r="26.31746" gradientUnits="userSpaceOnUse" id="color-15"><stop offset="0" stop-color="#ffffff" stop-opacity="0.16863"/><stop offset="1" stop-color="#ffffff" stop-opacity="0"/></radialGradient><radialGradient cx="314.79359" cy="98.75825" r="43.4345" gradientUnits="userSpaceOnUse" id="color-16"><stop offset="0.89387" stop-color="#ffffff" stop-opacity="0"/><stop offset="1" stop-color="#ffffff" stop-opacity="0.32941"/></radialGradient><linearGradient x1="460.5731" y1="53.52329" x2="460.5731" y2="140.39228" gradientUnits="userSpaceOnUse" id="color-17"><stop offset="0" stop-color="#2c2c2c"/><stop offset="1" stop-color="#5c5c5c"/></linearGradient><radialGradient cx="446.63903" cy="97.56284" r="26.31746" gradientUnits="userSpaceOnUse" id="color-18"><stop offset="0" stop-color="#ffffff" stop-opacity="0.16863"/><stop offset="1" stop-color="#ffffff" stop-opacity="0"/></radialGradient><radialGradient cx="460.5731" cy="96.95778" r="43.4345" gradientUnits="userSpaceOnUse" id="color-19"><stop offset="0.89387" stop-color="#ffffff" stop-opacity="0"/><stop offset="1" stop-color="#ffffff" stop-opacity="0.32941"/></radialGradient><linearGradient x1="106.53714" y1="157.6515" x2="106.53714" y2="244.5205" gradientUnits="userSpaceOnUse" id="color-20"><stop offset="0" stop-color="#2c2c2c"/><stop offset="1" stop-color="#5c5c5c"/></linearGradient><radialGradient cx="129.49011" cy="175.35458" r="26.31746" gradientUnits="userSpaceOnUse" id="color-21"><stop offset="0" stop-color="#ffffff" stop-opacity="0.16863"/><stop offset="1" stop-color="#ffffff" stop-opacity="0"/></radialGradient><radialGradient cx="106.53714" cy="201.086" r="43.4345" gradientUnits="userSpaceOnUse" id="color-22"><stop offset="0.89387" stop-color="#ffffff" stop-opacity="0"/><stop offset="1" stop-color="#ffffff" stop-opacity="0.32941"/></radialGradient><linearGradient x1="241.90383" y1="157.6515" x2="241.90383" y2="244.5205" gradientUnits="userSpaceOnUse" id="color-23"><stop offset="0" stop-color="#2c2c2c"/><stop offset="1" stop-color="#5c5c5c"/></linearGradient><radialGradient cx="246.15746" cy="176.75716" r="26.31746" gradientUnits="userSpaceOnUse" id="color-24"><stop offset="0" stop-color="#ffffff" stop-opacity="0.16863"/><stop offset="1" stop-color="#ffffff" stop-opacity="0"/></radialGradient><radialGradient cx="241.90383" cy="201.086" r="43.4345" gradientUnits="userSpaceOnUse" id="color-25"><stop offset="0.89387" stop-color="#ffffff" stop-opacity="0"/><stop offset="1" stop-color="#ffffff" stop-opacity="0.32941"/></radialGradient><linearGradient x1="387.68334" y1="157.6515" x2="387.68334" y2="244.5205" gradientUnits="userSpaceOnUse" id="color-26"><stop offset="0" stop-color="#2c2c2c"/><stop offset="1" stop-color="#5c5c5c"/></linearGradient><radialGradient cx="381.49553" cy="180.09315" r="26.31746" gradientUnits="userSpaceOnUse" id="color-27"><stop offset="0" stop-color="#ffffff" stop-opacity="0.16863"/><stop offset="1" stop-color="#ffffff" stop-opacity="0"/></radialGradient><radialGradient cx="387.68334" cy="201.086" r="43.4345" gradientUnits="userSpaceOnUse" id="color-28"><stop offset="0.89387" stop-color="#ffffff" stop-opacity="0"/><stop offset="1" stop-color="#ffffff" stop-opacity="0.32941"/></radialGradient><linearGradient x1="533.46286" y1="157.6515" x2="533.46286" y2="244.5205" gradientUnits="userSpaceOnUse" id="color-29"><stop offset="0" stop-color="#2c2c2c"/><stop offset="1" stop-color="#5c5c5c"/></linearGradient><radialGradient cx="511.34903" cy="190.85499" r="26.31746" gradientUnits="userSpaceOnUse" id="color-30"><stop offset="0" stop-color="#ffffff" stop-opacity="0.16863"/><stop offset="1" stop-color="#ffffff" stop-opacity="0"/></radialGradient><radialGradient cx="533.46286" cy="201.086" r="43.4345" gradientUnits="userSpaceOnUse" id="color-31"><stop offset="0.89387" stop-color="#ffffff" stop-opacity="0"/><stop offset="1" stop-color="#ffffff" stop-opacity="0.32941"/></radialGradient><linearGradient x1="460.5731" y1="262.50763" x2="460.5731" y2="349.37663" gradientUnits="userSpaceOnUse" id="color-32"><stop offset="0" stop-color="#2c2c2c"/><stop offset="1" stop-color="#5c5c5c"/></linearGradient><radialGradient cx="446.63903" cy="287.7864" r="26.31746" gradientUnits="userSpaceOnUse" id="color-33"><stop offset="0" stop-color="#ffffff" stop-opacity="0.16863"/><stop offset="1" stop-color="#ffffff" stop-opacity="0"/></radialGradient><radialGradient cx="460.5731" cy="305.94213" r="43.4345" gradientUnits="userSpaceOnUse" id="color-34"><stop offset="0.89387" stop-color="#ffffff" stop-opacity="0"/><stop offset="1" stop-color="#ffffff" stop-opacity="0.32941"/></radialGradient><linearGradient x1="314.79359" y1="264.30809" x2="314.79359" y2="351.17709" gradientUnits="userSpaceOnUse" id="color-35"><stop offset="0" stop-color="#2c2c2c"/><stop offset="1" stop-color="#5c5c5c"/></linearGradient><radialGradient cx="315.90176" cy="282.62222" r="26.31746" gradientUnits="userSpaceOnUse" id="color-36"><stop offset="0" stop-color="#ffffff" stop-opacity="0.16863"/><stop offset="1" stop-color="#ffffff" stop-opacity="0"/></radialGradient><radialGradient cx="314.79359" cy="307.74259" r="43.4345" gradientUnits="userSpaceOnUse" id="color-37"><stop offset="0.89387" stop-color="#ffffff" stop-opacity="0"/><stop offset="1" stop-color="#ffffff" stop-opacity="0.32941"/></radialGradient><linearGradient x1="169.01409" y1="264.65276" x2="169.01409" y2="351.52176" gradientUnits="userSpaceOnUse" id="color-38"><stop offset="0" stop-color="#2c2c2c"/><stop offset="1" stop-color="#5c5c5c"/></linearGradient><radialGradient cx="183.28423" cy="287.9931" r="26.31746" gradientUnits="userSpaceOnUse" id="color-39"><stop offset="0" stop-color="#ffffff" stop-opacity="0.16863"/><stop offset="1" stop-color="#ffffff" stop-opacity="0"/></radialGradient><radialGradient cx="169.01409" cy="308.08726" r="43.4345" gradientUnits="userSpaceOnUse" id="color-40"><stop offset="0.89387" stop-color="#ffffff" stop-opacity="0"/><stop offset="1" stop-color="#ffffff" stop-opacity="0.32941"/></radialGradient></defs><g transform="translate(-62.60264,-53.02329)"><g stroke-miterlimit="10"><path d="M358.22809,98.75825c0,23.98821 -19.44629,43.4345 -43.4345,43.4345c-23.98821,0 -43.4345,-19.44629 -43.4345,-43.4345c0,-23.98821 19.44629,-43.4345 43.4345,-43.4345c23.98821,0 43.4345,19.44629 43.4345,43.4345z" fill="url(#color-1)" stroke="#000000" stroke-width="0"/><path d="M212.44857,99.10292c0,23.98821 -19.44629,43.4345 -43.4345,43.4345c-23.98821,0 -43.4345,-19.44629 -43.4345,-43.4345c0,-23.98821 19.44629,-43.4345 43.4345,-43.4345c23.98821,0 43.4345,19.44629 43.4345,43.4345z" fill="url(#color-2)" stroke="#000000" stroke-width="0"/><path d="M504.0076,96.95778c0,23.98821 -19.44629,43.4345 -43.4345,43.4345c-23.98821,0 -43.4345,-19.44629 -43.4345,-43.4345c0,-23.98821 19.44629,-43.4345 43.4345,-43.4345c23.98821,0 43.4345,19.44629 43.4345,43.4345z" fill="url(#color-3)" stroke="#000000" stroke-width="0"/><path d="M285.33833,201.086c0,23.98821 -19.44629,43.4345 -43.4345,43.4345c-23.98821,0 -43.4345,-19.44629 -43.4345,-43.4345c0,-23.98821 19.44629,-43.4345 43.4345,-43.4345c23.98821,0 43.4345,19.44629 43.4345,43.4345z" fill="url(#color-4)" stroke="#000000" stroke-width="0"/><path d="M431.11784,201.086c0,23.98821 -19.44629,43.4345 -43.43451,43.4345c-23.98821,0 -43.43449,-19.44629 -43.43449,-43.4345c0,-23.98821 19.44629,-43.4345 43.43449,-43.4345c23.98821,0 43.43451,19.44629 43.43451,43.4345z" fill="url(#color-5)" stroke="#000000" stroke-width="0"/><path d="M149.97164,201.086c0,23.98821 -19.44629,43.4345 -43.4345,43.4345c-23.98821,0 -43.4345,-19.44629 -43.4345,-43.4345c0,-23.98821 19.44629,-43.4345 43.4345,-43.4345c23.98821,0 43.4345,19.44629 43.4345,43.4345z" fill="url(#color-6)" stroke="#000000" stroke-width="0"/><path d="M576.89736,201.086c0,23.98821 -19.44629,43.4345 -43.4345,43.4345c-23.98821,0 -43.43449,-19.44629 -43.43449,-43.4345c0,-23.98821 19.44629,-43.4345 43.43449,-43.4345c23.98821,0 43.4345,19.44629 43.4345,43.4345z" fill="url(#color-7)" stroke="#000000" stroke-width="0"/><path d="M358.22809,307.74259c0,23.98821 -19.44629,43.4345 -43.4345,43.4345c-23.98821,0 -43.4345,-19.44629 -43.4345,-43.4345c0,-23.98821 19.44629,-43.4345 43.4345,-43.4345c23.98821,0 43.4345,19.44629 43.4345,43.4345z" fill="url(#color-8)" stroke="#000000" stroke-width="0"/><path d="M212.44858,308.08726c0,23.98821 -19.44629,43.4345 -43.4345,43.4345c-23.98821,0 -43.43449,-19.44629 -43.43449,-43.4345c0,-23.98821 19.44629,-43.4345 43.4345,-43.4345c23.98821,0 43.4345,19.44629 43.4345,43.4345z" fill="url(#color-9)" stroke="#000000" stroke-width="0"/><path d="M504.0076,305.94213c0,23.98821 -19.44629,43.4345 -43.4345,43.4345c-23.98821,0 -43.4345,-19.44629 -43.4345,-43.4345c0,-23.98821 19.44629,-43.4345 43.4345,-43.4345c23.98821,0 43.4345,19.44629 43.4345,43.4345z" fill="url(#color-10)" stroke="#000000" stroke-width="0"/><path d="M212.44857,99.10292c0,23.98821 -19.44629,43.4345 -43.4345,43.4345c-23.98821,0 -43.4345,-19.44629 -43.4345,-43.4345c0,-23.98821 19.44629,-43.4345 43.4345,-43.4345c23.98821,0 43.4345,19.44629 43.4345,43.4345z" fill="url(#color-11)" stroke="#000000" stroke-width="0"/><path d="M211.24935,99.70797c0,14.53473 -11.78273,26.31746 -26.31746,26.31746c-14.53473,0 -26.31746,-11.78273 -26.31746,-26.31746c0,-14.53473 11.78273,-26.31746 26.31746,-26.31746c14.53473,0 26.31746,11.78273 26.31746,26.31746z" fill="url(#color-12)" stroke="#000000" stroke-width="0"/><path d="M212.44857,99.10292c0,23.98821 -19.44629,43.4345 -43.4345,43.4345c-23.98821,0 -43.4345,-19.44629 -43.4345,-43.4345c0,-23.98821 19.44629,-43.4345 43.4345,-43.4345c23.98821,0 43.4345,19.44629 43.4345,43.4345z" fill="url(#color-13)" stroke-opacity="0.11373" stroke="#ffffff" stroke-width="1"/><path d="M358.22809,98.75825c0,23.98821 -19.44629,43.4345 -43.4345,43.4345c-23.98821,0 -43.4345,-19.44629 -43.4345,-43.4345c0,-23.98821 19.44629,-43.4345 43.4345,-43.4345c23.98821,0 43.4345,19.44629 43.4345,43.4345z" fill="url(#color-14)" stroke="#000000" stroke-width="0"/><path d="M341.10785,97.37318c0,14.53473 -11.78273,26.31746 -26.31746,26.31746c-14.53473,0 -26.31746,-11.78273 -26.31746,-26.31746c0,-14.53473 11.78273,-26.31746 26.31746,-26.31746c14.53473,0 26.31746,11.78273 26.31746,26.31746z" fill="url(#color-15)" stroke="#000000" stroke-width="0"/><path d="M358.22809,98.75825c0,23.98821 -19.44629,43.4345 -43.4345,43.4345c-23.98821,0 -43.4345,-19.44629 -43.4345,-43.4345c0,-23.98821 19.44629,-43.4345 43.4345,-43.4345c23.98821,0 43.4345,19.44629 43.4345,43.4345z" fill="url(#color-16)" stroke-opacity="0.11373" stroke="#ffffff" stroke-width="1"/><path d="M504.0076,96.95778c0,23.98821 -19.44629,43.4345 -43.4345,43.4345c-23.98821,0 -43.4345,-19.44629 -43.4345,-43.4345c0,-23.98821 19.44629,-43.4345 43.4345,-43.4345c23.98821,0 43.4345,19.44629 43.4345,43.4345z" fill="url(#color-17)" stroke="#000000" stroke-width="0"/><path d="M472.95649,97.56284c0,14.53473 -11.78273,26.31746 -26.31746,26.31746c-14.53473,0 -26.31746,-11.78273 -26.31746,-26.31746c0,-14.53473 11.78273,-26.31746 26.31746,-26.31746c14.53473,0 26.31746,11.78273 26.31746,26.31746z" fill="url(#color-18)" stroke="#000000" stroke-width="0"/><path d="M504.0076,96.95778c0,23.98821 -19.44629,43.4345 -43.4345,43.4345c-23.98821,0 -43.4345,-19.44629 -43.4345,-43.4345c0,-23.98821 19.44629,-43.4345 43.4345,-43.4345c23.98821,0 43.4345,19.44629 43.4345,43.4345z" fill="url(#color-19)" stroke-opacity="0.11373" stroke="#ffffff" stroke-width="1"/><path d="M149.97164,201.086c0,23.98821 -19.44629,43.4345 -43.4345,43.4345c-23.98821,0 -43.4345,-19.44629 -43.4345,-43.4345c0,-23.98821 19.44629,-43.4345 43.4345,-43.4345c23.98821,0 43.4345,19.44629 43.4345,43.4345z" fill="url(#color-20)" stroke="#000000" stroke-width="0"/><path d="M155.80757,175.35458c0,14.53473 -11.78273,26.31746 -26.31746,26.31746c-14.53473,0 -26.31746,-11.78273 -26.31746,-26.31746c0,-14.53473 11.78273,-26.31746 26.31746,-26.31746c14.53473,0 26.31746,11.78273 26.31746,26.31746z" fill="url(#color-21)" stroke="#000000" stroke-width="0"/><path d="M149.97164,201.086c0,23.98821 -19.44629,43.4345 -43.4345,43.4345c-23.98821,0 -43.4345,-19.44629 -43.4345,-43.4345c0,-23.98821 19.44629,-43.4345 43.4345,-43.4345c23.98821,0 43.4345,19.44629 43.4345,43.4345z" fill="url(#color-22)" stroke-opacity="0.11373" stroke="#ffffff" stroke-width="1"/><path d="M285.33833,201.086c0,23.98821 -19.44629,43.4345 -43.4345,43.4345c-23.98821,0 -43.4345,-19.44629 -43.4345,-43.4345c0,-23.98821 19.44629,-43.4345 43.4345,-43.4345c23.98821,0 43.4345,19.44629 43.4345,43.4345z" fill="url(#color-23)" stroke="#000000" stroke-width="0"/><path d="M272.47492,176.75716c0,14.53473 -11.78273,26.31746 -26.31746,26.31746c-14.53473,0 -26.31746,-11.78273 -26.31746,-26.31746c0,-14.53473 11.78273,-26.31746 26.31746,-26.31746c14.53473,0 26.31746,11.78273 26.31746,26.31746z" fill="url(#color-24)" stroke="#000000" stroke-width="0"/><path d="M285.33833,201.086c0,23.98821 -19.44629,43.4345 -43.4345,43.4345c-23.98821,0 -43.4345,-19.44629 -43.4345,-43.4345c0,-23.98821 19.44629,-43.4345 43.4345,-43.4345c23.98821,0 43.4345,19.44629 43.4345,43.4345z" fill="url(#color-25)" stroke-opacity="0.11373" stroke="#ffffff" stroke-width="1"/><path d="M431.11784,201.086c0,23.98821 -19.44629,43.4345 -43.4345,43.4345c-23.98821,0 -43.4345,-19.44629 -43.4345,-43.4345c0,-23.98821 19.44629,-43.4345 43.4345,-43.4345c23.98821,0 43.4345,19.44629 43.4345,43.4345z" fill="url(#color-26)" stroke="#000000" stroke-width="0"/><path d="M407.81299,180.09315c0,14.53473 -11.78273,26.31746 -26.31746,26.31746c-14.53473,0 -26.31746,-11.78273 -26.31746,-26.31746c0,-14.53473 11.78273,-26.31746 26.31746,-26.31746c14.53473,0 26.31746,11.78273 26.31746,26.31746z" fill="url(#color-27)" stroke="#000000" stroke-width="0"/><path d="M431.11784,201.086c0,23.98821 -19.44629,43.4345 -43.4345,43.4345c-23.98821,0 -43.4345,-19.44629 -43.4345,-43.4345c0,-23.98821 19.44629,-43.4345 43.4345,-43.4345c23.98821,0 43.4345,19.44629 43.4345,43.4345z" fill="url(#color-28)" stroke-opacity="0.11373" stroke="#ffffff" stroke-width="1"/><path d="M576.89736,201.086c0,23.98821 -19.44629,43.4345 -43.4345,43.4345c-23.98821,0 -43.4345,-19.44629 -43.4345,-43.4345c0,-23.98821 19.44629,-43.4345 43.4345,-43.4345c23.98821,0 43.4345,19.44629 43.4345,43.4345z" fill="url(#color-29)" stroke="#000000" stroke-width="0"/><path d="M537.66649,190.85499c0,14.53473 -11.78273,26.31746 -26.31746,26.31746c-14.53473,0 -26.31746,-11.78273 -26.31746,-26.31746c0,-14.53473 11.78273,-26.31746 26.31746,-26.31746c14.53473,0 26.31746,11.78273 26.31746,26.31746z" fill="url(#color-30)" stroke="#000000" stroke-width="0"/><path d="M576.89736,201.086c0,23.98821 -19.44629,43.4345 -43.4345,43.4345c-23.98821,0 -43.4345,-19.44629 -43.4345,-43.4345c0,-23.98821 19.44629,-43.4345 43.4345,-43.4345c23.98821,0 43.4345,19.44629 43.4345,43.4345z" fill="url(#color-31)" stroke-opacity="0.11373" stroke="#ffffff" stroke-width="1"/><path d="M504.0076,305.94213c0,23.98821 -19.44629,43.4345 -43.4345,43.4345c-23.98821,0 -43.4345,-19.44629 -43.4345,-43.4345c0,-23.98821 19.44629,-43.4345 43.4345,-43.4345c23.98821,0 43.4345,19.44629 43.4345,43.4345z" fill="url(#color-32)" stroke="#000000" stroke-width="0"/><path d="M472.95649,287.7864c0,12.53097 -11.78273,22.68932 -26.31746,22.68932c-14.53473,0 -26.31746,-10.15836 -26.31746,-22.68932c0,-12.53097 11.78273,-22.68932 26.31746,-22.68932c14.53473,0 26.31746,10.15836 26.31746,22.68932z" fill="url(#color-33)" stroke="#000000" stroke-width="0"/><path d="M504.0076,305.94213c0,23.98821 -19.44629,43.4345 -43.4345,43.4345c-23.98821,0 -43.4345,-19.44629 -43.4345,-43.4345c0,-23.98821 19.44629,-43.4345 43.4345,-43.4345c23.98821,0 43.4345,19.44629 43.4345,43.4345z" fill="url(#color-34)" stroke-opacity="0.11373" stroke="#ffffff" stroke-width="1"/><path d="M358.22809,307.74259c0,23.98821 -19.44629,43.4345 -43.4345,43.4345c-23.98821,0 -43.4345,-19.44629 -43.4345,-43.4345c0,-23.98821 19.44629,-43.4345 43.4345,-43.4345c23.98821,0 43.4345,19.44629 43.4345,43.4345z" fill="url(#color-35)" stroke="#000000" stroke-width="0"/><path d="M342.21922,282.62222c0,10.11461 -11.78273,18.31413 -26.31746,18.31413c-14.53473,0 -26.31746,-8.19951 -26.31746,-18.31413c0,-10.11461 11.78273,-18.31413 26.31746,-18.31413c14.53473,0 26.31746,8.19951 26.31746,18.31413z" fill="url(#color-36)" stroke="#000000" stroke-width="0"/><path d="M358.22809,307.74259c0,23.98821 -19.44629,43.4345 -43.4345,43.4345c-23.98821,0 -43.4345,-19.44629 -43.4345,-43.4345c0,-23.98821 19.44629,-43.4345 43.4345,-43.4345c23.98821,0 43.4345,19.44629 43.4345,43.4345z" fill="url(#color-37)" stroke-opacity="0.11373" stroke="#ffffff" stroke-width="1"/><path d="M212.44859,308.08726c0,23.98821 -19.44629,43.4345 -43.4345,43.4345c-23.98821,0 -43.4345,-19.44629 -43.4345,-43.4345c0,-23.98821 19.44629,-43.4345 43.4345,-43.4345c23.98821,0 43.4345,19.44629 43.4345,43.4345z" fill="url(#color-38)" stroke="#000000" stroke-width="0"/><path d="M209.60169,287.9931c0,12.53097 -11.78273,22.68932 -26.31746,22.68932c-14.53473,0 -26.31746,-10.15836 -26.31746,-22.68932c0,-12.53097 11.78273,-22.68932 26.31746,-22.68932c14.53473,0 26.31746,10.15836 26.31746,22.68932z" fill="url(#color-39)" stroke="#000000" stroke-width="0"/><path d="M212.44859,308.08726c0,23.98821 -19.44629,43.4345 -43.4345,43.4345c-23.98821,0 -43.4345,-19.44629 -43.4345,-43.4345c0,-23.98821 19.44629,-43.4345 43.4345,-43.4345c23.98821,0 43.4345,19.44629 43.4345,43.4345z" fill="url(#color-40)" stroke-opacity="0.11373" stroke="#ffffff" stroke-width="1"/></g></g></svg>