<svg version="1.1" xmlns="http://www.w3.org/2000/svg" xmlns:xlink="http://www.w3.org/1999/xlink" width="557.74183" height="300.98526" viewBox="0,0,557.74183,300.98526"><defs><linearGradient x1="148.87018" y1="151.42168" x2="149.07428" y2="151.42168" gradientUnits="userSpaceOnUse" id="color-1"><stop offset="0" stop-color="#2b2b2d"/><stop offset="1" stop-color="#484848"/></linearGradient><linearGradient x1="143.72094" y1="129.72" x2="143.72094" y2="140.81942" gradientUnits="userSpaceOnUse" id="color-2"><stop offset="0" stop-color="#9a9a9a"/><stop offset="1" stop-color="#343435"/></linearGradient><linearGradient x1="143.72094" y1="176.2238" x2="143.72094" y2="182.37306" gradientUnits="userSpaceOnUse" id="color-3"><stop offset="0" stop-color="#484848" stop-opacity="0"/><stop offset="1" stop-color="#484848"/></linearGradient><linearGradient x1="318.92638" y1="130.26248" x2="318.92638" y2="141.3619" gradientUnits="userSpaceOnUse" id="color-4"><stop offset="0" stop-color="#9a9a9a"/><stop offset="1" stop-color="#343435"/></linearGradient><linearGradient x1="318.92638" y1="176.76628" x2="318.92638" y2="182.91554" gradientUnits="userSpaceOnUse" id="color-5"><stop offset="0" stop-color="#484848" stop-opacity="0"/><stop offset="1" stop-color="#484848"/></linearGradient><linearGradient x1="491.07364" y1="130.26248" x2="491.07364" y2="141.3619" gradientUnits="userSpaceOnUse" id="color-6"><stop offset="0" stop-color="#9a9a9a"/><stop offset="1" stop-color="#343435"/></linearGradient><linearGradient x1="491.07364" y1="176.76628" x2="491.07364" y2="182.91554" gradientUnits="userSpaceOnUse" id="color-7"><stop offset="0" stop-color="#484848" stop-opacity="0"/><stop offset="1" stop-color="#484848"/></linearGradient><linearGradient x1="348.47466" y1="313.85452" x2="348.47466" y2="320.16677" gradientUnits="userSpaceOnUse" id="color-8"><stop offset="0" stop-color="#9a9a9a"/><stop offset="1" stop-color="#343435"/></linearGradient><linearGradient x1="348.47466" y1="340.30127" x2="348.47466" y2="343.79836" gradientUnits="userSpaceOnUse" id="color-9"><stop offset="0" stop-color="#484848" stop-opacity="0"/><stop offset="1" stop-color="#484848"/></linearGradient><linearGradient x1="440.92778" y1="313.85452" x2="440.92778" y2="320.16677" gradientUnits="userSpaceOnUse" id="color-10"><stop offset="0" stop-color="#9a9a9a"/><stop offset="1" stop-color="#343435"/></linearGradient><linearGradient x1="440.92778" y1="340.30127" x2="440.92778" y2="343.79836" gradientUnits="userSpaceOnUse" id="color-11"><stop offset="0" stop-color="#484848" stop-opacity="0"/><stop offset="1" stop-color="#484848"/></linearGradient><linearGradient x1="533.3809" y1="313.85452" x2="533.3809" y2="320.16677" gradientUnits="userSpaceOnUse" id="color-12"><stop offset="0" stop-color="#9a9a9a"/><stop offset="1" stop-color="#343435"/></linearGradient><linearGradient x1="533.3809" y1="340.30127" x2="533.3809" y2="343.79836" gradientUnits="userSpaceOnUse" id="color-13"><stop offset="0" stop-color="#484848" stop-opacity="0"/><stop offset="1" stop-color="#484848"/></linearGradient></defs><g transform="translate(-40.89587,-44.06466)"><g stroke="none" stroke-miterlimit="10"><path d="M148.97222,151.42168c-0.05636,0 -0.10204,0 -0.10204,0v0c0,0 0.04568,0 0.10204,0v0c0.05636,0 0.10206,0 0.10206,0v0c0,0 -0.0457,0 -0.10206,0z" fill="url(#color-1)" stroke-width="0"/><g stroke-width="0"><path d="M65.26392,182.96952c-3.31372,0 -6,-2.68628 -6,-6v-40.65306c0,-3.31372 2.68628,-6 6,-6h158c3.31372,0 6,2.68628 6,6v40.65306c0,3.31372 -2.68628,6 -6,6z" fill-opacity="0.05098" fill="#292929"/><path d="M66.06606,183.77166c-3.31372,0 -6,-2.68628 -6,-6v-40.65306c0,-3.31372 2.68628,-6 6,-6h158c3.31372,0 6,2.68628 6,6v40.65306c0,3.31372 -2.68628,6 -6,6z" fill-opacity="0.05098" fill="#292929"/><path d="M66.8682,184.5738c-3.31372,0 -6,-2.68628 -6,-6v-40.65306c0,-3.31372 2.68628,-6 6,-6h158c3.31372,0 6,2.68628 6,6v40.65306c0,3.31372 -2.68628,6 -6,6z" fill-opacity="0.05098" fill="#292929"/><g><path d="M64.72094,182.37306c-3.31372,0 -6,-2.68628 -6,-6v-40.65306c0,-3.31372 2.68628,-6 6,-6h158c3.31372,0 6,2.68628 6,6v40.65306c0,3.31372 -2.68628,6 -6,6z" fill="#292929"/><path d="M58.72094,135.86924c0,-3.31372 2.68628,-6.14924 6,-6.14924h158c3.31372,0 6,2.83554 6,6.14924c0,0 -18.49838,5.35744 -84.48672,4.92536c-57.95376,-0.37948 -85.51328,-4.92536 -85.51328,-4.92536z" fill="url(#color-2)"/><path d="M228.72094,176.2238c0,3.31372 -2.68628,6.14924 -6,6.14924h-158c-3.31372,0 -6,-2.83554 -6,-6.14924z" fill="url(#color-3)"/></g></g><g stroke-width="0"><path d="M240.46936,183.512c-3.31372,0 -6,-2.68628 -6,-6v-40.65306c0,-3.31372 2.68628,-6 6,-6h158c3.31372,0 6,2.68628 6,6v40.65306c0,3.31372 -2.68628,6 -6,6z" fill-opacity="0.05098" fill="#292929"/><path d="M241.2715,184.31414c-3.31372,0 -6,-2.68628 -6,-6v-40.65306c0,-3.31372 2.68628,-6 6,-6h158c3.31372,0 6,2.68628 6,6v40.65306c0,3.31372 -2.68628,6 -6,6z" fill-opacity="0.05098" fill="#292929"/><path d="M242.07364,185.11628c-3.31372,0 -6,-2.68628 -6,-6v-40.65306c0,-3.31372 2.68628,-6 6,-6h158c3.31372,0 6,2.68628 6,6v40.65306c0,3.31372 -2.68628,6 -6,6z" fill-opacity="0.05098" fill="#292929"/><g><path d="M239.92638,182.91554c-3.31372,0 -6,-2.68628 -6,-6v-40.65306c0,-3.31372 2.68628,-6 6,-6h158c3.31372,0 6,2.68628 6,6v40.65306c0,3.31372 -2.68628,6 -6,6z" fill="#292929"/><path d="M233.92638,136.41172c0,-3.31372 2.68628,-6.14924 6,-6.14924h158c3.31372,0 6,2.83554 6,6.14924c0,0 -18.49838,5.35744 -84.48672,4.92536c-57.95376,-0.37948 -85.51328,-4.92536 -85.51328,-4.92536z" fill="url(#color-4)"/><path d="M403.92638,176.76628c0,3.31372 -2.68628,6.14924 -6,6.14924h-158c-3.31372,0 -6,-2.83554 -6,-6.14924z" fill="url(#color-5)"/></g></g><g stroke-width="0"><path d="M412.61662,183.512c-3.31372,0 -6,-2.68628 -6,-6v-40.65306c0,-3.31372 2.68628,-6 6,-6h158c3.31372,0 6,2.68628 6,6v40.65306c0,3.31372 -2.68628,6 -6,6z" fill-opacity="0.05098" fill="#292929"/><path d="M413.41876,184.31414c-3.31372,0 -6,-2.68628 -6,-6v-40.65306c0,-3.31372 2.68628,-6 6,-6h158c3.31372,0 6,2.68628 6,6v40.65306c0,3.31372 -2.68628,6 -6,6z" fill-opacity="0.05098" fill="#292929"/><path d="M414.2209,185.11628c-3.31372,0 -6,-2.68628 -6,-6v-40.65306c0,-3.31372 2.68628,-6 6,-6h158c3.31372,0 6,2.68628 6,6v40.65306c0,3.31372 -2.68628,6 -6,6z" fill-opacity="0.05098" fill="#292929"/><g><path d="M412.07364,182.91554c-3.31372,0 -6,-2.68628 -6,-6v-40.65306c0,-3.31372 2.68628,-6 6,-6h158c3.31372,0 6,2.68628 6,6v40.65306c0,3.31372 -2.68628,6 -6,6z" fill="#292929"/><path d="M406.07364,136.41172c0,-3.31372 2.68628,-6.14924 6,-6.14924h158c3.31372,0 6,2.83554 6,6.14924c0,0 -18.49838,5.35744 -84.48672,4.92536c-57.95376,-0.37948 -85.51328,-4.92536 -85.51328,-4.92536z" fill="url(#color-6)"/><path d="M576.07364,176.76628c0,3.31372 -2.68628,6.14924 -6,6.14924h-158c-3.31372,0 -6,-2.83554 -6,-6.14924z" fill="url(#color-7)"/></g></g><g stroke-width="0"><path d="M40.89587,197.58119v-0.84968h557.27537v0.84968z" fill="#1a1a1a"/><path d="M40.89587,199.3437v-0.84968h557.27537v0.84968z" fill="#979797"/><path d="M40.89587,198.43087v-0.84968h557.27537v0.84968z" fill-opacity="0.1098" fill="#ffffff"/></g><g stroke-width="0"><path d="M41.36233,258.31538v-0.84968h557.27537v0.84968z" fill="#1a1a1a"/><path d="M41.36233,260.07789v-0.84969h557.27537v0.84969z" fill="#979797"/><path d="M41.36233,259.16506v-0.84968h557.27537v0.84968z" fill-opacity="0.1098" fill="#ffffff"/></g><g stroke-width="0"><path d="M315.26755,344.13757c-1.40254,0 -2.53951,-1.52769 -2.53951,-3.41221v-23.11943c0,-1.88452 1.13697,-3.41221 2.53951,-3.41221h66.87385c1.40254,0 2.53951,1.52769 2.53951,3.41221v23.11943c0,1.88452 -1.13697,3.41221 -2.53951,3.41221z" fill-opacity="0.05098" fill="#292929"/><path d="M315.60706,344.59374c-1.40254,0 -2.53951,-1.52769 -2.53951,-3.41221v-23.11943c0,-1.88452 1.13697,-3.41221 2.53951,-3.41221h66.87385c1.40254,0 2.53951,1.52769 2.53951,3.41221v23.11943c0,1.88452 -1.13697,3.41221 -2.53951,3.41221z" fill-opacity="0.05098" fill="#292929"/><path d="M315.94657,345.04992c-1.40254,0 -2.53951,-1.52769 -2.53951,-3.41221v-23.11943c0,-1.88452 1.13697,-3.41221 2.53951,-3.41221h66.87385c1.40254,0 2.53951,1.52769 2.53951,3.41221v23.11943c0,1.88452 -1.13697,3.41221 -2.53951,3.41221z" fill-opacity="0.05098" fill="#292929"/><g><path d="M315.03773,343.79836c-1.40254,0 -2.53951,-1.52769 -2.53951,-3.41221v-23.11943c0,-1.88452 1.13697,-3.41221 2.53951,-3.41221h66.87385c1.40254,0 2.53951,1.52769 2.53951,3.41221v23.11943c0,1.88452 -1.13697,3.41221 -2.53951,3.41221z" fill="#292929"/><path d="M312.49822,317.3516c0,-1.88452 1.13697,-3.49708 2.53951,-3.49708h66.87385c1.40254,0 2.53951,1.61257 2.53951,3.49708c0,0 -7.82948,3.04678 -35.75919,2.80106c-24.52906,-0.21581 -36.19369,-2.80106 -36.19369,-2.80106z" fill="url(#color-8)"/><path d="M384.4511,340.30127c0,1.88452 -1.13697,3.49708 -2.53951,3.49708h-66.87385c-1.40254,0 -2.53951,-1.61257 -2.53951,-3.49708z" fill="url(#color-9)"/></g></g><g stroke-width="0"><path d="M407.72067,344.13757c-1.40254,0 -2.53951,-1.52769 -2.53951,-3.4122v-23.11943c0,-1.88452 1.13697,-3.41221 2.53951,-3.41221h66.87385c1.40254,0 2.53951,1.52769 2.53951,3.41221v23.11943c0,1.88452 -1.13697,3.4122 -2.53951,3.4122z" fill-opacity="0.05098" fill="#292929"/><path d="M408.06018,344.59375c-1.40254,0 -2.53951,-1.52769 -2.53951,-3.41221v-23.11944c0,-1.88452 1.13698,-3.4122 2.53951,-3.4122h66.87385c1.40254,0 2.53951,1.52769 2.53951,3.4122v23.11944c0,1.88452 -1.13698,3.41221 -2.53951,3.41221z" fill-opacity="0.05098" fill="#292929"/><path d="M408.39968,345.04992c-1.40254,0 -2.53951,-1.52769 -2.53951,-3.4122v-23.11943c0,-1.88452 1.13697,-3.4122 2.53951,-3.4122h66.87385c1.40254,0 2.53951,1.52769 2.53951,3.4122v23.11943c0,1.88452 -1.13697,3.4122 -2.53951,3.4122z" fill-opacity="0.05098" fill="#292929"/><g><path d="M407.49085,343.79836c-1.40254,0 -2.53951,-1.52769 -2.53951,-3.41221v-23.11943c0,-1.88452 1.13698,-3.41221 2.53951,-3.41221h66.87385c1.40254,0 2.53951,1.52769 2.53951,3.41221v23.11943c0,1.88452 -1.13698,3.41221 -2.53951,3.41221z" fill="#292929"/><path d="M404.95134,317.3516c0,-1.88452 1.13698,-3.49708 2.53951,-3.49708h66.87385c1.40254,0 2.53951,1.61257 2.53951,3.49708c0,0 -7.82948,3.04678 -35.75919,2.80106c-24.52906,-0.21581 -36.19369,-2.80106 -36.19369,-2.80106z" fill="url(#color-10)"/><path d="M476.90422,340.30127c0,1.88452 -1.13698,3.49707 -2.53951,3.49707h-66.87385c-1.40254,0 -2.53951,-1.61257 -2.53951,-3.49707z" fill="url(#color-11)"/></g></g><g stroke-width="0"><path d="M500.17379,344.13757c-1.40254,0 -2.53951,-1.52769 -2.53951,-3.4122v-23.11943c0,-1.88452 1.13697,-3.41221 2.53951,-3.41221h66.87385c1.40254,0 2.53951,1.52769 2.53951,3.41221v23.11943c0,1.88452 -1.13697,3.4122 -2.53951,3.4122z" fill-opacity="0.05098" fill="#292929"/><path d="M500.5133,344.59375c-1.40254,0 -2.53951,-1.52769 -2.53951,-3.41221v-23.11944c0,-1.88452 1.13698,-3.4122 2.53951,-3.4122h66.87385c1.40254,0 2.53951,1.52769 2.53951,3.4122v23.11944c0,1.88452 -1.13697,3.41221 -2.53951,3.41221z" fill-opacity="0.05098" fill="#292929"/><path d="M500.8528,345.04992c-1.40254,0 -2.53951,-1.52769 -2.53951,-3.4122v-23.11943c0,-1.88452 1.13697,-3.4122 2.53951,-3.4122h66.87386c1.40254,0 2.53951,1.52769 2.53951,3.4122v23.11943c0,1.88452 -1.13697,3.4122 -2.53951,3.4122z" fill-opacity="0.05098" fill="#292929"/><g><path d="M499.94397,343.79836c-1.40254,0 -2.53951,-1.52769 -2.53951,-3.41221v-23.11943c0,-1.88452 1.13698,-3.41221 2.53951,-3.41221h66.87385c1.40254,0 2.53951,1.52769 2.53951,3.41221v23.11943c0,1.88452 -1.13697,3.41221 -2.53951,3.41221z" fill="#292929"/><path d="M497.40446,317.3516c0,-1.88452 1.13698,-3.49708 2.53951,-3.49708h66.87385c1.40254,0 2.53951,1.61257 2.53951,3.49708c0,0 -7.82948,3.04678 -35.7592,2.80106c-24.52906,-0.21581 -36.19368,-2.80106 -36.19368,-2.80106z" fill="url(#color-12)"/><path d="M569.35734,340.30127c0,1.88452 -1.13697,3.49707 -2.53951,3.49707h-66.87385c-1.40254,0 -2.53951,-1.61257 -2.53951,-3.49707z" fill="url(#color-13)"/></g></g><text transform="translate(59.15942,233.97828) scale(0.39319,0.39319)" font-size="40" xml:space="preserve" fill="#fcfcfc" stroke-width="1" font-family="&quot;SCE-PS3 Rodin LATIN Regular&quot;, Sans Serif" font-weight="normal" text-anchor="start"><tspan x="0" dy="0">Brightness</tspan></text><text transform="translate(59.15942,295.05843) scale(0.39319,0.39319)" font-size="40" xml:space="preserve" fill="#fcfcfc" stroke-width="1" font-family="&quot;SCE-PS3 Rodin LATIN Regular&quot;, Sans Serif" font-weight="normal" text-anchor="start"><tspan x="0" dy="0">Music</tspan></text><text transform="translate(59.15945,60.38205) scale(0.39319,0.39319)" font-size="40" xml:space="preserve" fill="#fcfcfc" stroke-width="1" font-family="&quot;SCE-PS3 Rodin LATIN Regular&quot;, Sans Serif" font-weight="normal" text-anchor="start"><tspan x="0" dy="0">Network</tspan></text><text transform="translate(112.87039,160.25776) scale(0.26963,0.26963)" font-size="40" xml:space="preserve" fill="#ebebeb" stroke-width="1" font-family="&quot;SCE-PS3 Rodin LATIN Regular&quot;, Sans Serif" font-weight="normal" text-anchor="start"><tspan x="0" dy="0">Flight Mode</tspan></text><text transform="translate(306.19496,160.80024) scale(0.26963,0.26963)" font-size="40" xml:space="preserve" fill="#ebebeb" stroke-width="1" font-family="&quot;SCE-PS3 Rodin LATIN Regular&quot;, Sans Serif" font-weight="normal" text-anchor="start"><tspan x="0" dy="0">Wi-Fi</tspan></text><text transform="translate(439.54248,160.80024) scale(0.26963,0.26963)" font-size="40" xml:space="preserve" fill="#ebebeb" stroke-width="1" font-family="&quot;SCE-PS3 Rodin LATIN Regular&quot;, Sans Serif" font-weight="normal" text-anchor="start"><tspan x="0" dy="0">Bluetooth® Feature</tspan></text></g></g></svg>