<svg version="1.1" xmlns="http://www.w3.org/2000/svg" xmlns:xlink="http://www.w3.org/1999/xlink" width="663" height="380" viewBox="0,0,663,380"><defs><linearGradient x1="321.00001" y1="-9" x2="321.00001" y2="371.00001" gradientUnits="userSpaceOnUse" id="color-1"><stop offset="0" stop-color="#000000"/><stop offset="1" stop-color="#0c0c0c"/></linearGradient></defs><g transform="translate(10.49999,9)"><g stroke-miterlimit="10"><path d="M-10.49999,371.00001v-380h663v380z" fill="url(#color-1)" fill-rule="nonzero" stroke="#000000" stroke-width="0"/><path d="M413.85286,184.11122v-1.62437h-0.0104l-0.62084,1.62437h-0.28234l-0.6211,-1.62437h-0.00962v1.62437h-0.37879v-2.07883h0.58548l0.56988,1.47333l0.56573,-1.47333h0.57976v2.07883zM410.87033,184.11122h-0.4035v-1.75073h-0.6354v-0.3281h1.67481v0.3281h-0.63591zM397.88469,178.11159l-19.11527,-0.00676l-3.29971,6.31811h-4.34666c0,0 13.54642,-25.64578 14.08589,-26.52166c0.5392,-0.87641 2.08454,-3.64366 4.57857,-3.50899c2.4935,0.13467 3.53603,2.0328 4.00816,2.84161c0.47135,0.80881 14.45896,27.18903 14.45896,27.18903h-6.95844zM389.71186,162.91817c-0.6042,-1.21334 -1.97665,-1.51207 -2.71812,-0.09697c-0.30912,0.58418 -6.15302,11.56302 -6.15302,11.56302l15.06992,0.0013zM365.23496,158.00345l0.0221,26.15197h-6.2162v-26.12389l-11.80012,-0.01845v-3.63223l29.86167,-0.02002l-0.01352,3.67434zM349.19427,202.5071c0.83637,-0.15339 1.58148,-0.06161 1.58148,-0.74485c0,-0.60212 -0.6224,-0.71418 -1.09193,-0.71418c-0.65282,0 -1.11169,0.26544 -1.16317,0.83663h-1.16316c0.08137,-1.35737 1.23466,-1.75515 2.39756,-1.75515c1.03057,0 2.11211,0.41857 2.11211,1.53078v2.71397c0,0.2852 0.06135,0.39777 0.27584,0.39777c0.07124,0 0.16327,0 0.28547,-0.0208v0.80621c-0.17341,0.06135 -0.54025,0.13259 -0.73419,0.13259c-0.46953,0 -0.80647,-0.16301 -0.89824,-0.64242c-0.45913,0.44925 -1.20372,0.64242 -1.82586,0.64242c-0.9492,0 -1.80584,-0.50983 -1.80584,-1.5404c-0.00026,-1.3163 1.0506,-1.53052 2.02995,-1.64258zM349.39835,204.77208c0.50983,0 1.30564,-0.26544 1.30564,-1.00041v-0.86678c-0.35695,0.23476 -0.918,0.22436 -1.4286,0.31614c-0.49969,0.08164 -0.94842,0.26544 -0.94842,0.87718c0,0.52048 0.66347,0.67387 1.07139,0.67387zM344.34818,204.2516v-3.112h-0.8777v-0.8673h0.8777v-1.58174h1.16317v1.58174h1.05111v0.8673h-1.05111v2.81613c0,0.47967 0.04056,0.72432 0.5613,0.72432c0.16301,0 0.32628,0 0.48981,-0.04082v0.89798c-0.25531,0.02002 -0.50021,0.06083 -0.75499,0.06083c-1.21464,0.00026 -1.43901,-0.46901 -1.45929,-1.34645zM336.87678,154.5449h6.32097v29.78003h-6.32097zM337.71653,204.02749l1.8672,-5.76513h1.29549l-2.48933,7.28525h-1.41821l-2.4285,-7.28525h1.32669l1.82638,5.76513zM332.91178,205.62352c-0.96454,0 -1.65089,-0.72223 -1.65089,-1.67767c0,-1.00952 0.76253,-1.67741 1.65089,-1.67741c0.87927,0 1.64179,0.6679 1.64179,1.67741c0,1.00952 -0.76252,1.67767 -1.64179,1.67767zM332.91178,202.55988c-0.7264,0 -1.29186,0.56963 -1.29186,1.38598c0,0.76279 0.49319,1.38623 1.29186,1.38623c0.71781,0 1.28301,-0.5652 1.28301,-1.38623c0,-0.81635 -0.5652,-1.38598 -1.28301,-1.38598zM333.17202,204.08963l0.52049,0.81634h-0.34552l-0.47993,-0.79373h-0.28702v0.79373h-0.30522v-1.8568h0.7043c0.44873,0 0.67699,0.15703 0.67699,0.53375c0.00026,0.3359 -0.20565,0.47551 -0.48409,0.50671zM332.94792,203.3089h-0.36788v0.5431h0.3411c0.22879,0 0.43053,-0.02261 0.43053,-0.29196c0,-0.22411 -0.2202,-0.25115 -0.40375,-0.25115zM314.27853,184.41722c-2.48882,-0.13467 -3.52927,-2.02891 -4.0001,-2.8359c-0.47109,-0.80725 -14.43167,-27.13652 -14.43167,-27.13652h6.94519l11.56171,21.46343c0.6029,1.211 1.97328,1.50921 2.71345,0.09645c0.60524,-1.14341 11.50217,-21.55989 11.50217,-21.55989h4.3386c0,0 -13.52095,25.59612 -14.05911,26.47045c-0.53868,0.87458 -2.08117,3.63665 -4.57024,3.50197zM297.22103,200.27229l-2.051,5.56052c-0.37776,0.9492 -0.65308,1.80637 -1.86746,1.80637c-0.27532,0 -0.5405,-0.02055 -0.80595,-0.06136v-0.97987c0.18355,0.03068 0.36736,0.07124 0.55091,0.07124c0.54077,0 0.67336,-0.2852 0.81609,-0.73419l0.13259,-0.40817l-1.99979,-5.25452h1.27548l1.37739,3.93849h0.02028l1.33684,-3.93849zM277.88088,162.57786v13.63325c0,4.98492 -2.24418,8.09509 -8.46454,8.09509h-13.36209v-3.68604h11.65816c2.38587,0 3.81136,-1.93792 3.81136,-4.40879v-13.63351c0,-4.34562 2.11055,-8.09484 8.28826,-8.09484h13.27032v3.68657h-11.48112c-3.10108,-0.13415 -3.72036,2.40589 -3.72036,4.40828zM251.64989,171.01353h-14.29907c-1.96002,0 -3.40838,1.49126 -3.40838,4.04742v9.28737h-6.17304v-8.94654c0,-5.02729 3.15282,-8.41461 7.62608,-8.41461h14.46495c3.54721,-0.13493 4.39319,-1.89553 4.39319,-4.45195c0,-1.95976 -0.98039,-4.63524 -4.39319,-4.36589h-22.09103v-3.68605h23.88049c6.26274,0 8.73387,3.62104 8.73387,8.0522c0,5.0273 -2.47113,8.47805 -8.73387,8.47805zM283.34547,200.5172c0,0.89772 -0.39803,2.24496 -2.47946,2.23456h-1.9387v2.79612h-1.27522v-7.28525h3.21391c2.08142,-0.00026 2.47946,1.34646 2.47946,2.25458zM278.92731,199.30334v2.40796h1.8672c0.57144,0 1.27548,-0.28598 1.27548,-1.20424c0,-0.95908 -0.58158,-1.20372 -1.25494,-1.20372zM285.53869,205.54761h-1.16316v-7.28525h1.16316zM288.59947,202.5071c0.83662,-0.15339 1.58148,-0.06161 1.58148,-0.74485c0,-0.60212 -0.6224,-0.71418 -1.09193,-0.71418c-0.65308,0 -1.11221,0.26544 -1.16316,0.83663h-1.16316c0.08138,-1.35737 1.23466,-1.75515 2.39757,-1.75515c1.03057,0 2.11236,0.41857 2.11236,1.53078v2.71397c0,0.2852 0.0611,0.39777 0.27533,0.39777c0.0715,0 0.16327,0 0.28572,-0.0208v0.80621c-0.17341,0.06135 -0.54051,0.13259 -0.73471,0.13259c-0.46901,0 -0.80595,-0.16301 -0.89772,-0.64242c-0.45939,0.44925 -1.20398,0.64242 -1.82612,0.64242c-0.94894,0 -1.8061,-0.50983 -1.8061,-1.5404c0,-1.3163 1.05085,-1.53052 2.03047,-1.64258zM288.80355,204.77208c0.51009,0 1.3059,-0.26544 1.3059,-1.00041v-0.86678c-0.35721,0.23476 -0.91826,0.22436 -1.42861,0.31614c-0.49995,0.08164 -0.94868,0.26544 -0.94868,0.87718c0.00026,0.52048 0.66321,0.67387 1.07139,0.67387zM300.7711,204.68005c1.12234,0 1.54066,-0.55117 1.54066,-1.10181c0,-0.56131 -0.306,-0.78593 -0.60186,-0.89798c-0.51008,-0.19394 -1.1733,-0.32654 -2.1732,-0.60186c-1.2448,-0.33694 -1.6119,-1.09141 -1.6119,-1.84692c0,-1.45851 1.34671,-2.14252 2.663,-2.14252c1.52038,0 2.7956,0.80621 2.7956,2.32633h-1.27548c-0.0611,-0.9388 -0.69389,-1.28562 -1.57134,-1.28562c-0.59172,0 -1.33657,0.21423 -1.33657,0.94894c0,0.51009 0.34682,0.79555 0.8673,0.93828c0.11205,0.03094 1.72421,0.44899 2.10145,0.56156c0.95908,0.28546 1.41847,1.10155 1.41847,1.8568c0,1.63243 -1.44889,2.28551 -2.89777,2.28551c-1.66311,0 -3.00982,-0.79581 -3.0405,-2.60192h1.27522c0.00026,1.12234 0.82675,1.5612 1.84692,1.5612zM304.93369,198.69055h1.16343v1.58174h1.05059v0.8673h-1.05059v2.81613c0,0.47967 0.04056,0.72432 0.56078,0.72432c0.16327,0 0.3268,0 0.4898,-0.04082v0.89798c-0.25504,0.02002 -0.49995,0.06083 -0.75499,0.06083c-1.21412,0 -1.43874,-0.46927 -1.45902,-1.34671v-3.112h-0.87744v-0.8673h0.87744zM309.78003,202.5071c0.83663,-0.15339 1.58148,-0.06161 1.58148,-0.74485c0,-0.60212 -0.6224,-0.71418 -1.09167,-0.71418c-0.65308,0 -1.11221,0.26544 -1.16343,0.83663h-1.16316c0.08164,-1.35737 1.23466,-1.75515 2.39782,-1.75515c1.03057,0 2.11211,0.41857 2.11211,1.53078v2.71397c0,0.2852 0.06083,0.39777 0.27558,0.39777c0.07149,0 0.16301,0 0.28572,-0.0208v0.80621c-0.17341,0.06135 -0.54076,0.13259 -0.73445,0.13259c-0.46953,0 -0.8062,-0.16301 -0.89824,-0.64242c-0.45887,0.44925 -1.20372,0.64242 -1.82612,0.64242c-0.94894,0 -1.80584,-0.50983 -1.80584,-1.5404c-0.00026,-1.3163 1.05059,-1.53052 2.0302,-1.64258zM309.98386,204.77208c0.51009,0 1.30589,-0.26544 1.30589,-1.00041v-0.86678c-0.35721,0.23476 -0.918,0.22436 -1.42835,0.31614c-0.49969,0.08164 -0.94868,0.26544 -0.94868,0.87718c0,0.52048 0.66295,0.67387 1.07113,0.67387zM314.10563,198.69055h1.16317v1.58174h1.05085v0.8673h-1.05085v2.81613c0,0.47967 0.04082,0.72432 0.56104,0.72432c0.16327,0 0.32654,0 0.49007,-0.04082v0.89798c-0.25504,0.02002 -0.49995,0.06083 -0.75526,0.06083c-1.21412,0 -1.43848,-0.46927 -1.45902,-1.34671v-3.112h-0.87744v-0.8673h0.87744zM318.40108,199.36417h-1.16316v-1.10181h1.16316zM318.40108,205.54761h-1.16316v-5.27532h1.16316zM322.13521,200.1293c1.69379,0 2.66275,1.16342 2.66275,2.77558c0,1.62178 -0.96922,2.78494 -2.66275,2.78494c-1.69353,0 -2.66274,-1.16316 -2.66274,-2.78494c0,-1.61216 0.96921,-2.77558 2.66274,-2.77558zM322.13521,204.77208c1.04098,0 1.49985,-0.9492 1.49985,-1.8672c0,-0.90838 -0.45887,-1.85706 -1.49985,-1.85706c-1.04071,0 -1.49984,0.94842 -1.49984,1.85706c0.00026,0.91774 0.45912,1.8672 1.49984,1.8672zM326.9202,201.04808l0.02028,0.02002c0.34682,-0.58132 0.94894,-0.93854 1.64257,-0.93854c1.14288,0 1.8672,0.612 1.8672,1.79597v3.62234h-1.16291v-3.3166c-0.02054,-0.82596 -0.34734,-1.18319 -1.03057,-1.18319c-0.77553,0 -1.27548,0.612 -1.27548,1.38753v3.11226h-1.16342v-5.27532h1.10206v0.77553zM342.68507,199.36417h-1.16317v-1.10181h1.16317zM342.68507,205.54761h-1.16317v-5.27532h1.16317z" fill="#ffffff" fill-rule="evenodd" stroke="none" stroke-width="1"/><text transform="translate(5.70189,345.41127) scale(0.14822,0.14822)" font-size="40" xml:space="preserve" fill-opacity="0.24706" fill="#ffffff" fill-rule="nonzero" stroke="none" stroke-width="1" font-family="&quot;SCE-PS3 Rodin LATIN Regular&quot;, Sans Serif" font-weight="normal" text-anchor="start"><tspan x="0" dy="0">PSVita menu recreated in PenguinMod</tspan><tspan x="0" dy="46.15px">Created by SaffiShark</tspan></text></g></g></svg>