<svg version="1.1" xmlns="http://www.w3.org/2000/svg" xmlns:xlink="http://www.w3.org/1999/xlink" width="49.22246" height="5.74331" viewBox="0,0,49.22246,5.74331"><defs><linearGradient x1="145.02782" y1="105.47346" x2="145.02782" y2="110.71677" gradientUnits="userSpaceOnUse" id="color-1"><stop offset="0" stop-color="#1c1c1c"/><stop offset="1" stop-color="#777777"/></linearGradient></defs><g transform="translate(-120.41658,-105.22345)"><g stroke-opacity="0.25098" stroke="#000000" stroke-width="0.5" stroke-miterlimit="10"><path d="M121.16659,110.71677c-0.27614,0 -0.5,-0.22386 -0.5,-0.5v-4.24331c0,-0.27614 0.22386,-0.5 0.5,-0.5h47.72246c0.27614,0 0.5,0.22386 0.5,0.5v4.24331c0,0.27614 -0.22386,0.5 -0.5,0.5z" fill="url(#color-1)"/><path d="M121.16659,110.71677c-0.27614,0 -0.5,-0.22386 -0.5,-0.5v-4.04844c3.62209,1.12408 13.16219,1.92678 24.36123,1.92678c11.19904,0 20.73914,-0.8027 24.36123,-1.92678v4.04844c0,0.27614 -0.22386,0.5 -0.5,0.5z" fill="#1c1c1c"/></g></g></svg>