<svg version="1.1" xmlns="http://www.w3.org/2000/svg" xmlns:xlink="http://www.w3.org/1999/xlink" width="145.82936" height="79.52001" viewBox="0,0,145.82936,79.52001"><defs><linearGradient x1="320.10046" y1="141.43569" x2="320.10046" y2="218.4557" gradientUnits="userSpaceOnUse" id="color-1"><stop offset="0" stop-color="#bfbfbf" stop-opacity="0.74902"/><stop offset="1" stop-color="#545454" stop-opacity="0.74902"/></linearGradient><linearGradient x1="320.10046" y1="155.80507" x2="320.10046" y2="218.45568" gradientUnits="userSpaceOnUse" id="color-2"><stop offset="0" stop-color="#d2d2d2"/><stop offset="1" stop-color="#7a7a7a"/></linearGradient><linearGradient x1="320.05188" y1="198.77439" x2="320.05188" y2="218.56431" gradientUnits="userSpaceOnUse" id="color-3"><stop offset="0" stop-color="#bfbfbf"/><stop offset="1" stop-color="#8f8f8f"/></linearGradient><linearGradient x1="320.10045" y1="155.80507" x2="320.10045" y2="218.45568" gradientUnits="userSpaceOnUse" id="color-4"><stop offset="0" stop-color="#d2d2d2"/><stop offset="1" stop-color="#7a7a7a"/></linearGradient><linearGradient x1="320.10046" y1="141.4357" x2="320.10046" y2="218.45569" gradientUnits="userSpaceOnUse" id="color-5"><stop offset="0" stop-color="#bf9f00" stop-opacity="0.50196"/><stop offset="1" stop-color="#ff7961" stop-opacity="0.50196"/></linearGradient><linearGradient x1="320.10046" y1="155.80508" x2="320.10046" y2="218.45568" gradientUnits="userSpaceOnUse" id="color-6"><stop offset="0" stop-color="#d2d2d2"/><stop offset="1" stop-color="#7a7a7a"/></linearGradient></defs><g transform="translate(-247.18577,-140.18568)"><g stroke-miterlimit="10"><path d="M255.81995,218.45568c-4.07816,0 -7.38417,-3.77517 -7.38417,-8.43208v-60.15583c0,-4.65691 3.306,-8.43208 7.38417,-8.43208h128.56102c4.07816,0 7.38417,3.77517 7.38417,8.43208v60.15585c0,4.65691 -3.306,8.43208 -7.38417,8.43208z" fill="url(#color-1)" stroke="url(#color-2)" stroke-width="0"/><path d="M260.49465,185.00891c4.83848,-0.78863 9.42656,-2.0156 15.61608,-1.94048c6.18954,0.07512 13.63538,0.73596 21.36356,2.38929c3.61447,0.83365 6.82935,1.23567 8.7346,1.49841c0.57261,0.07896 1.02691,0.14534 1.33821,0.20708c4.89027,0.96978 14.1307,2.92916 17.41574,3.332c2.55065,0.31279 7.85256,1.33716 8.70132,1.39257c4.8326,0.31554 12.10801,0.73316 14.93074,0.59557c4.19169,-0.20434 8.86182,-0.48909 11.10044,-0.82141c8.5095,-1.26325 31.85538,-4.0499 31.85538,-4.0499l0.11721,23.89159c-0.47358,3.30625 -2.63106,5.96589 -5.43403,6.79303l-110.37502,0.21914l0.00037,0.04853l-21.72626,-0.22102c-3.11255,-0.83058 -5.46795,-3.90933 -5.68146,-7.65505l-0.21666,-23.07622c0,0 6.68707,-1.63498 11.50438,-2.4755c0.25757,-0.04494 0.50978,-0.08761 0.75536,-0.12763z" fill="url(#color-3)" stroke-opacity="0.50196" stroke="#ffffff" stroke-width="2"/><path d="M255.81995,218.45568c-4.07816,0 -7.38417,-3.77517 -7.38417,-8.43208v-60.15583c0,-4.65691 3.306,-8.43208 7.38417,-8.43208h128.56102c4.07816,0 7.38417,3.77517 7.38417,8.43208v60.15585c0,4.65691 -3.306,8.43208 -7.38417,8.43208z" fill="none" stroke="url(#color-4)" stroke-width="2.5"/><path d="M255.81995,218.45568c-4.07816,0 -7.38417,-3.77517 -7.38417,-8.43208v-60.15583c0,-4.65691 3.306,-8.43208 7.38417,-8.43208h128.56102c4.07816,0 7.38417,3.77517 7.38417,8.43208v60.15585c0,4.65691 -3.306,8.43208 -7.38417,8.43208z" fill="url(#color-5)" stroke="url(#color-6)" stroke-width="0"/></g></g></svg>