<svg version="1.1" xmlns="http://www.w3.org/2000/svg" xmlns:xlink="http://www.w3.org/1999/xlink" width="87.869" height="108.63857" viewBox="0,0,87.869,108.63857"><defs><linearGradient x1="320" y1="136.5655" x2="320" y2="223.4345" gradientUnits="userSpaceOnUse" id="color-1"><stop offset="0" stop-color="#fffae0"/><stop offset="1" stop-color="#fff5bf"/></linearGradient><linearGradient x1="320" y1="136.5655" x2="320" y2="223.4345" gradientUnits="userSpaceOnUse" id="color-2"><stop offset="0" stop-color="#2c2c2c"/><stop offset="1" stop-color="#5c5c5c"/></linearGradient><radialGradient cx="320" cy="180" r="43.4345" gradientUnits="userSpaceOnUse" id="color-3"><stop offset="0.89387" stop-color="#ffffff" stop-opacity="0"/><stop offset="1" stop-color="#ffffff" stop-opacity="0.32941"/></radialGradient><radialGradient cx="319.9968" cy="157.9906" r="26.31746" gradientUnits="userSpaceOnUse" id="color-4"><stop offset="0" stop-color="#ffffff" stop-opacity="0.16863"/><stop offset="1" stop-color="#ffffff" stop-opacity="0"/></radialGradient></defs><g transform="translate(-276.0655,-136.0655)"><g stroke-miterlimit="10"><path d="M363.4345,180c0,23.98821 -19.44629,43.4345 -43.4345,43.4345c-23.98821,0 -43.4345,-19.44629 -43.4345,-43.4345c0,-23.98821 19.44629,-43.4345 43.4345,-43.4345c23.98821,0 43.4345,19.44629 43.4345,43.4345z" fill="url(#color-1)" stroke="#000000" stroke-width="0"/><path d="M363.4345,180c0,23.98821 -19.44629,43.4345 -43.4345,43.4345c-23.98821,0 -43.4345,-19.44629 -43.4345,-43.4345c0,-23.98821 19.44629,-43.4345 43.4345,-43.4345c23.98821,0 43.4345,19.44629 43.4345,43.4345z" fill="url(#color-2)" stroke="#000000" stroke-width="0"/><path d="M363.4345,180c0,23.98821 -19.44629,43.4345 -43.4345,43.4345c-23.98821,0 -43.4345,-19.44629 -43.4345,-43.4345c0,-23.98821 19.44629,-43.4345 43.4345,-43.4345c23.98821,0 43.4345,19.44629 43.4345,43.4345z" fill="url(#color-3)" stroke-opacity="0.11373" stroke="#ffffff" stroke-width="1"/><path d="M346.31426,157.9906c0,10.50424 -11.78273,19.01961 -26.31746,19.01961c-14.53473,0 -26.31746,-8.51537 -26.31746,-19.01961c0,-10.50424 11.78273,-19.01962 26.31746,-19.01962c14.53473,0 26.31746,8.51538 26.31746,19.01962z" fill="url(#color-4)" stroke="#000000" stroke-width="0"/><text transform="translate(303.48697,241.10202) scale(0.42378,0.42377)" font-size="40" xml:space="preserve" fill-opacity="0.14902" fill="#030303" stroke="none" stroke-width="1" font-family="&quot;SCE-PS3 Rodin LATIN Regular&quot;, Sans Serif" font-weight="normal" text-anchor="start"><tspan x="0" dy="0">Title</tspan></text><text transform="translate(302.14857,239.76362) scale(0.42378,0.42377)" font-size="40" xml:space="preserve" fill="#faf7f7" stroke="none" stroke-width="1" font-family="&quot;SCE-PS3 Rodin LATIN Regular&quot;, Sans Serif" font-weight="normal" text-anchor="start"><tspan x="0" dy="0">Title</tspan></text></g></g></svg>