<svg version="1.1" xmlns="http://www.w3.org/2000/svg" xmlns:xlink="http://www.w3.org/1999/xlink" width="172.14728" height="109.61288" viewBox="0,0,172.14728,109.61288"><defs><linearGradient x1="319.15963" y1="114.62402" x2="319.15963" y2="125.72343" gradientUnits="userSpaceOnUse" id="color-1"><stop offset="0" stop-color="#9a9a9a"/><stop offset="1" stop-color="#343435"/></linearGradient><linearGradient x1="319.15963" y1="161.12779" x2="319.15963" y2="167.27704" gradientUnits="userSpaceOnUse" id="color-2"><stop offset="0" stop-color="#484848" stop-opacity="0"/><stop offset="1" stop-color="#484848"/></linearGradient><linearGradient x1="314.7077" y1="77.26818" x2="314.7077" y2="86.27883" gradientUnits="userSpaceOnUse" id="color-3"><stop offset="0" stop-color="#f0f0f2"/><stop offset="1" stop-color="#d4d4d6"/></linearGradient><linearGradient x1="318.52711" y1="69.42803" x2="318.52711" y2="87.10508" gradientUnits="userSpaceOnUse" id="color-4"><stop offset="0" stop-color="#f0f0f2"/><stop offset="1" stop-color="#d4d4d6"/></linearGradient><linearGradient x1="322.4944" y1="61.85924" x2="322.4944" y2="86.46938" gradientUnits="userSpaceOnUse" id="color-5"><stop offset="0" stop-color="#f0f0f2"/><stop offset="1" stop-color="#d4d4d6"/></linearGradient><linearGradient x1="302.03508" y1="89.4625" x2="313.26383" y2="89.4625" gradientUnits="userSpaceOnUse" id="color-6"><stop offset="0" stop-color="#dadadd"/><stop offset="1" stop-color="#b9b7b7"/></linearGradient><linearGradient x1="318.31568" y1="105.4101" x2="318.31568" y2="110.65341" gradientUnits="userSpaceOnUse" id="color-7"><stop offset="0" stop-color="#1c1c1c"/><stop offset="1" stop-color="#777777"/></linearGradient></defs><g transform="translate(-234.15968,-59.86489)"><g stroke-miterlimit="10"><g stroke="none" stroke-width="0" stroke-linecap="butt" stroke-linejoin="miter"><path d="M240.70268,167.87354c-3.31372,0 -6,-2.68628 -6,-6v-40.65306c0,-3.31372 2.68628,-6 6,-6h158c3.31372,0 6,2.68628 6,6v40.65306c0,3.31372 -2.68628,6 -6,6z" fill-opacity="0.05098" fill="#292929"/><path d="M241.5048,168.67566c-3.31372,0 -6,-2.68628 -6,-6v-40.65306c0,-3.31372 2.68628,-6 6,-6h158c3.31372,0 6,2.68628 6,6v40.65306c0,3.31372 -2.68628,6 -6,6z" fill-opacity="0.05098" fill="#292929"/><path d="M242.30697,169.47778c-3.31372,0 -6,-2.68628 -6,-6v-40.65306c0,-3.31372 2.68628,-6 6,-6h158c3.31372,0 6,2.68628 6,6v40.65306c0,3.31372 -2.68628,6 -6,6z" fill-opacity="0.05098" fill="#292929"/><g><path d="M240.15969,167.27704c-3.31372,0 -6,-2.68628 -6,-6v-40.65306c0,-3.31372 2.68628,-6 6,-6h158c3.31372,0 6,2.68628 6,6v40.65306c0,3.31372 -2.68628,6 -6,6z" fill="#292929"/><path d="M234.15969,120.77324c0,-3.31372 2.68628,-6.14924 6,-6.14924h158c3.31372,0 6,2.83554 6,6.14924c0,0 -18.49838,5.35744 -84.48672,4.92536c-57.95376,-0.37948 -85.51328,-4.92536 -85.51328,-4.92536z" fill="url(#color-1)"/><path d="M404.1597,161.12779c0,3.31372 -2.68628,6.14924 -6,6.14924h-158c-3.31372,0 -6,-2.83554 -6,-6.14924z" fill="url(#color-2)"/></g></g><text transform="translate(306.42823,145.16172) scale(0.26963,0.26963)" font-size="40" xml:space="preserve" fill="#ebebeb" stroke="none" stroke-width="1" stroke-linecap="butt" stroke-linejoin="miter" font-family="&quot;SCE-PS3 Rodin LATIN Regular&quot;, Sans Serif" font-weight="normal" text-anchor="start"><tspan x="0" dy="0">Wi-Fi</tspan></text><g><path d="M310.07349,77.61875c0,0 4.04226,-1.47116 6.82275,1.61369c3.17604,3.52367 2.34857,7.04639 2.34857,7.04639" fill="none" stroke="url(#color-3)" stroke-width="4" stroke-linecap="round" stroke-linejoin="miter"/><path d="M309.71227,69.46607c0,0 5.60958,-2.02667 12.78586,4.08118c6.50781,5.72813 4.81609,13.55787 4.81609,13.55787" fill="none" stroke="url(#color-4)" stroke-width="4" stroke-linecap="round" stroke-linejoin="round"/><path d="M310.39259,61.97693c0,0 0.88832,-0.14798 2.37929,-0.11203c3.2225,0.07766 9.26029,1.01433 15.22933,6.16041c6.90251,7.41796 6.5929,18.44409 6.5929,18.44409" fill="none" stroke="url(#color-5)" stroke-width="4" stroke-linecap="round" stroke-linejoin="miter"/><path d="M302.03515,94.7565v-10.58796h11.22871v10.58796z" fill="url(#color-6)" stroke-opacity="0.48235" stroke="#ffffff" stroke-width="0.1" stroke-linecap="butt" stroke-linejoin="miter"/></g><path d="M294.45444,110.65341c-0.27614,0 -0.5,-0.22386 -0.5,-0.5v-4.24331c0,-0.27614 0.22386,-0.5 0.5,-0.5h47.72246c0.27614,0 0.5,0.22386 0.5,0.5v4.24331c0,0.27614 -0.22386,0.5 -0.5,0.5z" fill="url(#color-7)" stroke-opacity="0.25098" stroke="#000000" stroke-width="0.5" stroke-linecap="butt" stroke-linejoin="miter"/><path d="M294.45444,110.6534c-0.27614,0 -0.5,-0.22386 -0.5,-0.5v-4.04844c3.62209,1.12408 13.16219,1.92678 24.36123,1.92678c11.19904,0 20.73914,-0.8027 24.36123,-1.92678v4.04844c0,0.27614 -0.22386,0.5 -0.5,0.5z" fill="#1c1c1c" stroke-opacity="0.25098" stroke="#000000" stroke-width="0.5" stroke-linecap="butt" stroke-linejoin="miter"/><g stroke-opacity="0.4549" stroke="#000000"><path d="M310.07349,77.61875c0,0 4.04226,-1.47116 6.82275,1.61369c3.17604,3.52367 2.34857,7.04639 2.34857,7.04639" fill="none" stroke-width="4" stroke-linecap="round" stroke-linejoin="miter"/><path d="M309.71227,69.46604c0,0 5.60958,-2.02667 12.78586,4.08118c6.50781,5.72813 4.81609,13.55787 4.81609,13.55787" fill="none" stroke-width="4" stroke-linecap="round" stroke-linejoin="round"/><path d="M310.39261,61.97694c0,0 0.88832,-0.14798 2.37929,-0.11203c3.2225,0.07766 9.26029,1.01433 15.22933,6.16041c6.90251,7.41796 6.5929,18.44409 6.5929,18.44409" fill="none" stroke-width="4" stroke-linecap="round" stroke-linejoin="miter"/><path d="M302.03514,94.7565v-10.58796h11.22871v10.58796z" fill-opacity="0.4549" fill="#000000" stroke-width="0.1" stroke-linecap="butt" stroke-linejoin="miter"/></g></g></g></svg>