<svg version="1.1" xmlns="http://www.w3.org/2000/svg" xmlns:xlink="http://www.w3.org/1999/xlink" width="101" height="101" viewBox="0,0,101,101"><defs><linearGradient x1="320" y1="130" x2="320" y2="230" gradientUnits="userSpaceOnUse" id="color-1"><stop offset="0" stop-color="#2c2c2c"/><stop offset="1" stop-color="#5c5c5c"/></linearGradient><radialGradient cx="303.95967" cy="163.51438" r="30.29557" gradientUnits="userSpaceOnUse" id="color-2"><stop offset="0" stop-color="#ffffff" stop-opacity="0.16863"/><stop offset="1" stop-color="#ffffff" stop-opacity="0"/></radialGradient><radialGradient cx="320" cy="180" r="50" gradientUnits="userSpaceOnUse" id="color-3"><stop offset="0.89387" stop-color="#ffffff" stop-opacity="0"/><stop offset="1" stop-color="#ffffff" stop-opacity="0.32941"/></radialGradient></defs><g transform="translate(-269.5,-129.5)"><g stroke-miterlimit="10"><path d="M370,180c0,27.61423 -22.38576,50 -50,50c-27.61424,0 -50,-22.38577 -50,-50c0,-27.61424 22.38576,-50 50,-50c27.61424,0 50,22.38576 50,50z" fill="url(#color-1)" stroke="#000000" stroke-width="0"/><g><path d="M334.25524,163.51438c0,16.73178 -13.56379,30.29557 -30.29557,30.29557c-16.73178,0 -30.29557,-13.56379 -30.29557,-30.29557c0,-16.73178 13.56379,-30.29557 30.29557,-30.29557c16.73178,0 30.29557,13.56379 30.29557,30.29557z" fill="url(#color-2)" stroke="#000000" stroke-width="0"/><path d="M370,180c0,27.61423 -22.38576,50 -50,50c-27.61424,0 -50,-22.38577 -50,-50c0,-27.61424 22.38576,-50 50,-50c27.61424,0 50,22.38576 50,50z" fill="url(#color-3)" stroke-opacity="0.11373" stroke="#ffffff" stroke-width="1"/></g></g></g></svg>