<svg version="1.1" xmlns="http://www.w3.org/2000/svg" xmlns:xlink="http://www.w3.org/1999/xlink" width="172.14724" height="63.71184" viewBox="0,0,172.14724,63.71184"><defs><linearGradient x1="143.95416" y1="114.08149" x2="143.95416" y2="125.18092" gradientUnits="userSpaceOnUse" id="color-1"><stop offset="0" stop-color="#9a9a9a"/><stop offset="1" stop-color="#343435"/></linearGradient><linearGradient x1="143.95416" y1="160.58525" x2="143.95416" y2="166.73456" gradientUnits="userSpaceOnUse" id="color-2"><stop offset="0" stop-color="#484848" stop-opacity="0"/><stop offset="1" stop-color="#484848"/></linearGradient><linearGradient x1="145.02782" y1="105.47346" x2="145.02782" y2="110.71677" gradientUnits="userSpaceOnUse" id="color-3"><stop offset="0" stop-color="#8bb260"/><stop offset="1" stop-color="#ffffff"/></linearGradient><radialGradient cx="145.02782" cy="108.44255" r="24.36123" gradientUnits="userSpaceOnUse" id="color-4"><stop offset="0" stop-color="#9ad758"/><stop offset="1" stop-color="#84aa5c"/></radialGradient></defs><g transform="translate(-58.95419,-105.22345)"><g stroke-miterlimit="10"><g stroke="none" stroke-width="0"><path d="M65.49718,167.33101c-3.31372,0 -6,-2.68628 -6,-6v-40.65306c0,-3.31372 2.68628,-6 6,-6h158c3.31372,0 6,2.68628 6,6v40.65306c0,3.31372 -2.68628,6 -6,6z" fill-opacity="0.05098" fill="#292929"/><path d="M66.29932,168.13317c-3.31372,0 -6,-2.68628 -6,-6v-40.65306c0,-3.31372 2.68628,-6 6,-6h158c3.31372,0 6,2.68628 6,6v40.65306c0,3.31372 -2.68628,6 -6,6z" fill-opacity="0.05098" fill="#292929"/><path d="M67.10143,168.9353c-3.31372,0 -6,-2.68628 -6,-6v-40.65306c0,-3.31372 2.68628,-6 6,-6h158c3.31372,0 6,2.68628 6,6v40.65306c0,3.31372 -2.68628,6 -6,6z" fill-opacity="0.05098" fill="#292929"/><g><path d="M64.9542,166.73456c-3.31372,0 -6,-2.68628 -6,-6v-40.65306c0,-3.31372 2.68628,-6 6,-6h158c3.31372,0 6,2.68628 6,6v40.65306c0,3.31372 -2.68628,6 -6,6z" fill="#292929"/><path d="M58.9542,120.23075c0,-3.31372 2.68628,-6.14924 6,-6.14924h158c3.31372,0 6,2.83554 6,6.14924c0,0 -18.49838,5.35744 -84.48672,4.92536c-57.95376,-0.37948 -85.51328,-4.92536 -85.51328,-4.92536z" fill="url(#color-1)"/><path d="M228.95421,160.58525c0,3.31372 -2.68628,6.14924 -6,6.14924h-158c-3.31372,0 -6,-2.83554 -6,-6.14924z" fill="url(#color-2)"/></g></g><text transform="translate(113.10366,144.61925) scale(0.26963,0.26963)" font-size="40" xml:space="preserve" fill="#ebebeb" stroke="none" stroke-width="1" font-family="&quot;SCE-PS3 Rodin LATIN Regular&quot;, Sans Serif" font-weight="normal" text-anchor="start"><tspan x="0" dy="0">Flight Mode</tspan></text><path d="M121.16659,110.71677c-0.27614,0 -0.5,-0.22386 -0.5,-0.5v-4.24331c0,-0.27614 0.22386,-0.5 0.5,-0.5h47.72246c0.27614,0 0.5,0.22386 0.5,0.5v4.24331c0,0.27614 -0.22386,0.5 -0.5,0.5z" fill="url(#color-3)" stroke-opacity="0.25098" stroke="#000000" stroke-width="0.5"/><path d="M121.16659,110.71677c-0.27614,0 -0.5,-0.22386 -0.5,-0.5v-4.3972c3.62209,1.12408 13.16219,0.92408 24.36123,0.92408c11.19904,0 20.73914,0.2 24.36123,-0.92408v4.3972c0,0.27614 -0.22386,0.5 -0.5,0.5z" fill="url(#color-4)" stroke-opacity="0.25098" stroke="#000000" stroke-width="0"/></g></g></svg>