<svg version="1.1" xmlns="http://www.w3.org/2000/svg" xmlns:xlink="http://www.w3.org/1999/xlink" width="172.14726" height="112.71186" viewBox="0,0,172.14726,112.71186"><defs><linearGradient x1="491.30695" y1="114.624" x2="491.30695" y2="125.72342" gradientUnits="userSpaceOnUse" id="color-1"><stop offset="0" stop-color="#9a9a9a"/><stop offset="1" stop-color="#343435"/></linearGradient><linearGradient x1="491.30695" y1="161.12778" x2="491.30695" y2="167.27705" gradientUnits="userSpaceOnUse" id="color-2"><stop offset="0" stop-color="#484848" stop-opacity="0"/><stop offset="1" stop-color="#484848"/></linearGradient><linearGradient x1="498.34142" y1="105.64652" x2="498.34142" y2="110.88983" gradientUnits="userSpaceOnUse" id="color-3"><stop offset="0" stop-color="#1c1c1c"/><stop offset="1" stop-color="#777777"/></linearGradient></defs><g transform="translate(-406.30693,-56.76593)"><g stroke-miterlimit="10"><g stroke="none" stroke-width="0" stroke-linecap="butt"><path d="M412.84991,167.87351c-3.31372,0 -6,-2.68628 -6,-6v-40.65306c0,-3.31372 2.68628,-6 6,-6h158c3.31372,0 6,2.68628 6,6v40.65306c0,3.31372 -2.68628,6 -6,6z" fill-opacity="0.05098" fill="#292929"/><path d="M413.65206,168.67566c-3.31372,0 -6,-2.68628 -6,-6v-40.65306c0,-3.31372 2.68628,-6 6,-6h158c3.31372,0 6,2.68628 6,6v40.65306c0,3.31372 -2.68628,6 -6,6z" fill-opacity="0.05098" fill="#292929"/><path d="M414.4542,169.4778c-3.31372,0 -6,-2.68628 -6,-6v-40.65306c0,-3.31372 2.68628,-6 6,-6h158c3.31372,0 6,2.68628 6,6v40.65306c0,3.31372 -2.68628,6 -6,6z" fill-opacity="0.05098" fill="#292929"/><g><path d="M412.30695,167.27705c-3.31372,0 -6,-2.68628 -6,-6v-40.65306c0,-3.31372 2.68628,-6 6,-6h158c3.31372,0 6,2.68628 6,6v40.65306c0,3.31372 -2.68628,6 -6,6z" fill="#292929"/><path d="M406.30695,120.77323c0,-3.31372 2.68628,-6.14924 6,-6.14924h158c3.31372,0 6,2.83554 6,6.14924c0,0 -18.49838,5.35744 -84.48672,4.92536c-57.95376,-0.37948 -85.51328,-4.92536 -85.51328,-4.92536z" fill="url(#color-1)"/><path d="M576.30693,161.12778c0,3.31372 -2.68628,6.14924 -6,6.14924h-158c-3.31372,0 -6,-2.83554 -6,-6.14924z" fill="url(#color-2)"/></g></g><text transform="translate(439.77579,145.16174) scale(0.26963,0.26963)" font-size="40" xml:space="preserve" fill="#ebebeb" stroke="none" stroke-width="1" stroke-linecap="butt" font-family="&quot;SCE-PS3 Rodin LATIN Regular&quot;, Sans Serif" font-weight="normal" text-anchor="start"><tspan x="0" dy="0">Bluetooth® Feature</tspan></text><path d="M474.48019,110.88983c-0.27614,0 -0.5,-0.22386 -0.5,-0.5v-4.24331c0,-0.27614 0.22386,-0.5 0.5,-0.5h47.72246c0.27614,0 0.5,0.22386 0.5,0.5v4.24331c0,0.27614 -0.22386,0.5 -0.5,0.5z" fill="url(#color-3)" stroke-opacity="0.25098" stroke="#000000" stroke-width="0.5" stroke-linecap="butt"/><path d="M474.48019,110.88983c-0.27614,0 -0.5,-0.22386 -0.5,-0.5v-4.04844c3.62209,1.12408 13.16219,1.92678 24.36123,1.92678c11.19904,0 20.73914,-0.8027 24.36123,-1.92678v4.04844c0,0.27614 -0.22386,0.5 -0.5,0.5z" fill="#1c1c1c" stroke-opacity="0.25098" stroke="#000000" stroke-width="0.5" stroke-linecap="butt"/><g><path d="M513.77834,78.30789c0,5.85296 -0.36448,12.46895 -3.07919,16.35141c-2.80346,4.0094 -8.02639,5.19054 -12.35775,5.19054c-3.92753,0 -8.8207,-0.38974 -11.5452,-3.76067c-3.18964,-3.94643 -3.89175,-11.36478 -3.89175,-17.78128c0,-6.0204 0.7232,-12.51054 3.57636,-16.41944c2.78515,-3.81573 7.64922,-5.12251 11.86059,-5.12251c4.33776,0 9.56587,1.53736 12.37018,5.55719c2.70738,3.88088 3.06676,10.14073 3.06676,15.98476z" fill-opacity="0.36471" fill="#ffffff" stroke="#000000" stroke-width="0" stroke-linecap="butt"/><path d="M490.70884,70.65287l16.02716,14.84288l-8.68467,8.68467l0.47371,-16.10611l-7.9741,8.05306" fill="none" stroke="#5b5b5e" stroke-width="2.5" stroke-linecap="butt"/><path d="M498.52504,77.75853l-0.07895,-14.05337l7.42144,7.10564l-7.18458,7.02668" fill="none" stroke="#5b5b5e" stroke-width="2.5" stroke-linecap="round"/></g></g></g></svg>