<svg version="1.1" xmlns="http://www.w3.org/2000/svg" xmlns:xlink="http://www.w3.org/1999/xlink" width="87.869" height="107.66771" viewBox="0,0,87.869,107.66771"><defs><linearGradient x1="320" y1="136.5655" x2="320" y2="223.4345" gradientUnits="userSpaceOnUse" id="color-1"><stop offset="0" stop-color="#e6dd8c"/><stop offset="1" stop-color="#6fd154"/></linearGradient><linearGradient x1="320.40242" y1="171.72986" x2="320.40242" y2="189.5585" gradientTransform="translate(-774.17035,-498.34784) scale(2.69222,2.6923)" gradientUnits="userSpaceOnUse" id="color-2"><stop offset="0" stop-color="#000000" stop-opacity="0.33333"/><stop offset="1" stop-color="#ffffff" stop-opacity="0.25882"/></linearGradient><linearGradient x1="319.99983" y1="171.08572" x2="319.99983" y2="188.91436" gradientTransform="translate(-773.0865,-496.61363) scale(2.69222,2.6923)" gradientUnits="userSpaceOnUse" id="color-3"><stop offset="0" stop-color="#000000" stop-opacity="0.33333"/><stop offset="1" stop-color="#ffffff" stop-opacity="0.25882"/></linearGradient><radialGradient cx="323.1696" cy="183.40255" r="26.31746" gradientUnits="userSpaceOnUse" id="color-4"><stop offset="0" stop-color="#ffffff" stop-opacity="0.16863"/><stop offset="1" stop-color="#ffffff" stop-opacity="0"/></radialGradient><radialGradient cx="319.99983" cy="180.00004" r="43.4345" gradientUnits="userSpaceOnUse" id="color-5"><stop offset="0.89387" stop-color="#ffffff" stop-opacity="0"/><stop offset="1" stop-color="#ffffff" stop-opacity="0.32941"/></radialGradient></defs><g transform="translate(-276.06533,-136.06554)"><g stroke-miterlimit="10"><path d="M363.4345,180c0,23.98821 -19.44629,43.4345 -43.4345,43.4345c-23.98821,0 -43.4345,-19.44629 -43.4345,-43.4345c0,-23.98821 19.44629,-43.4345 43.4345,-43.4345c23.98821,0 43.4345,19.44629 43.4345,43.4345z" fill="url(#color-1)" stroke="#000000" stroke-width="0"/><text transform="translate(287.55784,185.10134) scale(0.37144,0.37143)" font-size="40" xml:space="preserve" fill-opacity="0.0549" fill="#000000" stroke="url(#color-2)" stroke-width="0" font-family="&quot;SCE-PS3 Rodin LATIN Regular&quot;, Sans Serif" font-weight="normal" text-anchor="start"><tspan x="0" dy="0">Test App</tspan></text><text transform="translate(287.15525,184.4572) scale(0.37144,0.37143)" font-size="40" xml:space="preserve" fill="#faf7f7" stroke="url(#color-3)" stroke-width="1" font-family="&quot;SCE-PS3 Rodin LATIN Regular&quot;, Sans Serif" font-weight="normal" text-anchor="start"><tspan x="0" dy="0">Test App</tspan></text><text transform="translate(302.44199,240.1312) scale(0.42378,0.42377)" font-size="40" xml:space="preserve" fill-opacity="0.14902" fill="#030303" stroke="none" stroke-width="1" font-family="&quot;SCE-PS3 Rodin LATIN Regular&quot;, Sans Serif" font-weight="normal" text-anchor="start"><tspan x="0" dy="0">Test</tspan></text><text transform="translate(301.10359,238.7928) scale(0.42378,0.42377)" font-size="40" xml:space="preserve" fill="#faf7f7" stroke="none" stroke-width="1" font-family="&quot;SCE-PS3 Rodin LATIN Regular&quot;, Sans Serif" font-weight="normal" text-anchor="start"><tspan x="0" dy="0">Test</tspan></text><g><path d="M349.48706,183.40255c0,14.53473 -11.78273,26.31746 -26.31746,26.31746c-14.53473,0 -26.31746,-11.78273 -26.31746,-26.31746c0,-14.53473 11.78273,-26.31746 26.31746,-26.31746c14.53473,0 26.31746,11.78273 26.31746,26.31746z" fill="url(#color-4)" stroke="#000000" stroke-width="0"/><path d="M363.43433,180.00004c0,23.98821 -19.44629,43.4345 -43.4345,43.4345c-23.98821,0 -43.4345,-19.44629 -43.4345,-43.4345c0,-23.98821 19.44629,-43.4345 43.4345,-43.4345c23.98821,0 43.4345,19.44629 43.4345,43.4345z" fill="url(#color-5)" stroke-opacity="0.11373" stroke="#ffffff" stroke-width="1"/></g></g></g></svg>