<svg version="1.1" xmlns="http://www.w3.org/2000/svg" xmlns:xlink="http://www.w3.org/1999/xlink" width="865.95413" height="578.65151" viewBox="0,0,865.95413,578.65151"><defs><linearGradient x1="320.00005" y1="348.829" x2="320.00005" y2="369.60486" gradientUnits="userSpaceOnUse" id="color-1"><stop offset="0" stop-color="#060608"/><stop offset="1" stop-color="#26252a"/></linearGradient><linearGradient x1="320.00005" y1="348.82896" x2="320.00005" y2="369.60489" gradientUnits="userSpaceOnUse" id="color-2"><stop offset="0" stop-color="#060608"/><stop offset="1" stop-color="#26252a"/></linearGradient><linearGradient x1="548.78635" y1="357.10088" x2="548.78635" y2="361.34707" gradientUnits="userSpaceOnUse" id="color-3"><stop offset="0" stop-color="#b1cb8a"/><stop offset="1" stop-color="#8bb55c"/></linearGradient><linearGradient x1="9.59258" y1="362.43537" x2="9.59258" y2="366.49479" gradientUnits="userSpaceOnUse" id="color-4"><stop offset="0" stop-color="#dadadd"/><stop offset="1" stop-color="#b9b7b7"/></linearGradient><linearGradient x1="35.59071" y1="352.4151" x2="35.59071" y2="366.58856" gradientUnits="userSpaceOnUse" id="color-5"><stop offset="0" stop-color="#dadadd"/><stop offset="1" stop-color="#b9b7b7"/></linearGradient><linearGradient x1="320.00005" y1="-10.26448" x2="320.00005" y2="349.73556" gradientUnits="userSpaceOnUse" id="color-6"><stop offset="0" stop-color="#767678"/><stop offset="1" stop-color="#121217"/></linearGradient><linearGradient x1="323.21738" y1="340.47795" x2="323.21738" y2="346.5106" gradientUnits="userSpaceOnUse" id="color-7"><stop offset="0" stop-color="#252429" stop-opacity="0"/><stop offset="1" stop-color="#252429" stop-opacity="0.22353"/></linearGradient><linearGradient x1="316.95261" y1="372.62123" x2="316.95261" y2="366.58856" gradientUnits="userSpaceOnUse" id="color-8"><stop offset="0" stop-color="#252429" stop-opacity="0"/><stop offset="1" stop-color="#252429"/></linearGradient><linearGradient x1="320.00005" y1="348.829" x2="320.00005" y2="369.60486" gradientUnits="userSpaceOnUse" id="color-9"><stop offset="0" stop-color="#000000"/><stop offset="1" stop-color="#1e1e22"/></linearGradient><linearGradient x1="487.73143" y1="351.41986" x2="487.73143" y2="367.87368" gradientUnits="userSpaceOnUse" id="color-10"><stop offset="0" stop-color="#22abfc"/><stop offset="1" stop-color="#25a4ed"/></linearGradient><linearGradient x1="487.73143" y1="351.41986" x2="487.73143" y2="367.87368" gradientUnits="userSpaceOnUse" id="color-11"><stop offset="0" stop-color="#0c9bed"/><stop offset="1" stop-color="#62baec"/></linearGradient><radialGradient cx="487.48251" cy="359.87042" r="8.22692" gradientUnits="userSpaceOnUse" id="color-12"><stop offset="0" stop-color="#98d3f5" stop-opacity="0"/><stop offset="1" stop-color="#98d3f5" stop-opacity="0.27843"/></radialGradient><linearGradient x1="487.73143" y1="365.34342" x2="487.73143" y2="367.1516" gradientUnits="userSpaceOnUse" id="color-13"><stop offset="0" stop-color="#00243c"/><stop offset="1" stop-color="#002337"/></linearGradient><linearGradient x1="487.63217" y1="352.8063" x2="487.63217" y2="363.89717" gradientUnits="userSpaceOnUse" id="color-14"><stop offset="0" stop-color="#f6f0f0"/><stop offset="1" stop-color="#e9e8e8"/></linearGradient><radialGradient cx="43.51578" cy="45.15778" r="252.98473" gradientUnits="userSpaceOnUse" id="color-15"><stop offset="0" stop-color="#bdb8d1" stop-opacity="0.22353"/><stop offset="1" stop-color="#bdb8d1" stop-opacity="0"/></radialGradient><linearGradient x1="562.40428" y1="351.69963" x2="562.40428" y2="366.24389" gradientUnits="userSpaceOnUse" id="color-16"><stop offset="0" stop-color="#a4bb61"/><stop offset="1" stop-color="#5e9e2e"/></linearGradient><linearGradient x1="562.40428" y1="353.76623" x2="562.40428" y2="358.8973" gradientUnits="userSpaceOnUse" id="color-17"><stop offset="0" stop-color="#ffffff" stop-opacity="0.49804"/><stop offset="1" stop-color="#ffffff" stop-opacity="0.23922"/></linearGradient><linearGradient x1="562.40428" y1="358.91072" x2="562.40428" y2="359.64676" gradientUnits="userSpaceOnUse" id="color-18"><stop offset="0" stop-color="#ffffff" stop-opacity="0.23922"/><stop offset="1" stop-color="#ffffff" stop-opacity="0"/></linearGradient><linearGradient x1="562.40428" y1="353.76623" x2="562.40428" y2="352.5305" gradientUnits="userSpaceOnUse" id="color-19"><stop offset="0" stop-color="#ffffff" stop-opacity="0.49804"/><stop offset="1" stop-color="#ffffff" stop-opacity="0"/></linearGradient><linearGradient x1="149.10341" y1="135.78314" x2="149.30752" y2="135.78314" gradientUnits="userSpaceOnUse" id="color-20"><stop offset="0" stop-color="#2b2b2d"/><stop offset="1" stop-color="#484848"/></linearGradient><linearGradient x1="143.95416" y1="114.08146" x2="143.95416" y2="125.18088" gradientUnits="userSpaceOnUse" id="color-21"><stop offset="0" stop-color="#9a9a9a"/><stop offset="1" stop-color="#343435"/></linearGradient><linearGradient x1="143.95416" y1="160.58525" x2="143.95416" y2="166.73452" gradientUnits="userSpaceOnUse" id="color-22"><stop offset="0" stop-color="#484848" stop-opacity="0"/><stop offset="1" stop-color="#484848"/></linearGradient><linearGradient x1="319.1596" y1="114.62394" x2="319.1596" y2="125.72336" gradientUnits="userSpaceOnUse" id="color-23"><stop offset="0" stop-color="#9a9a9a"/><stop offset="1" stop-color="#343435"/></linearGradient><linearGradient x1="319.1596" y1="161.12774" x2="319.1596" y2="167.277" gradientUnits="userSpaceOnUse" id="color-24"><stop offset="0" stop-color="#484848" stop-opacity="0"/><stop offset="1" stop-color="#484848"/></linearGradient><linearGradient x1="491.30689" y1="114.62394" x2="491.30689" y2="125.72336" gradientUnits="userSpaceOnUse" id="color-25"><stop offset="0" stop-color="#9a9a9a"/><stop offset="1" stop-color="#343435"/></linearGradient><linearGradient x1="491.30689" y1="161.12774" x2="491.30689" y2="167.277" gradientUnits="userSpaceOnUse" id="color-26"><stop offset="0" stop-color="#484848" stop-opacity="0"/><stop offset="1" stop-color="#484848"/></linearGradient><linearGradient x1="348.70791" y1="298.21599" x2="348.70791" y2="304.52822" gradientUnits="userSpaceOnUse" id="color-27"><stop offset="0" stop-color="#9a9a9a"/><stop offset="1" stop-color="#343435"/></linearGradient><linearGradient x1="348.70791" y1="324.66272" x2="348.70791" y2="328.15982" gradientUnits="userSpaceOnUse" id="color-28"><stop offset="0" stop-color="#484848" stop-opacity="0"/><stop offset="1" stop-color="#484848"/></linearGradient><linearGradient x1="441.16101" y1="298.21599" x2="441.16101" y2="304.52822" gradientUnits="userSpaceOnUse" id="color-29"><stop offset="0" stop-color="#9a9a9a"/><stop offset="1" stop-color="#343435"/></linearGradient><linearGradient x1="441.16101" y1="324.66272" x2="441.16101" y2="328.15982" gradientUnits="userSpaceOnUse" id="color-30"><stop offset="0" stop-color="#484848" stop-opacity="0"/><stop offset="1" stop-color="#484848"/></linearGradient><linearGradient x1="533.61412" y1="298.21599" x2="533.61412" y2="304.52822" gradientUnits="userSpaceOnUse" id="color-31"><stop offset="0" stop-color="#9a9a9a"/><stop offset="1" stop-color="#343435"/></linearGradient><linearGradient x1="533.61412" y1="324.66272" x2="533.61412" y2="328.15982" gradientUnits="userSpaceOnUse" id="color-32"><stop offset="0" stop-color="#484848" stop-opacity="0"/><stop offset="1" stop-color="#484848"/></linearGradient><linearGradient x1="12.62906" y1="359.51568" x2="12.62906" y2="363.17288" gradientUnits="userSpaceOnUse" id="color-33"><stop offset="0" stop-color="#f0f0f2"/><stop offset="1" stop-color="#d4d4d6"/></linearGradient><linearGradient x1="14.17928" y1="356.33354" x2="14.17928" y2="363.50826" gradientUnits="userSpaceOnUse" id="color-34"><stop offset="0" stop-color="#f0f0f2"/><stop offset="1" stop-color="#d4d4d6"/></linearGradient><linearGradient x1="15.78951" y1="353.26154" x2="15.78951" y2="363.25021" gradientUnits="userSpaceOnUse" id="color-35"><stop offset="0" stop-color="#f0f0f2"/><stop offset="1" stop-color="#d4d4d6"/></linearGradient><linearGradient x1="7.48555" y1="364.46507" x2="12.04304" y2="364.46507" gradientUnits="userSpaceOnUse" id="color-36"><stop offset="0" stop-color="#dadadd"/><stop offset="1" stop-color="#b9b7b7"/></linearGradient></defs><g transform="translate(209.46895,206.03029)"><g stroke-miterlimit="10"><path d="M-13.26774,369.60486v-20.77591h606.75953c-1.32438,3.46122 -2.05147,7.22922 -2.05147,11.17108c0,3.35486 0.52667,6.58378 1.49998,9.60483zM653.2678,348.829v20.77591h-3.4756c0.97331,-3.02105 1.49998,-6.24997 1.49998,-9.60483c0,-3.94186 -0.7271,-7.70986 -2.05147,-11.17108zM621.36623,329.36157c-12.67745,0 -23.51372,8.07069 -27.87447,19.46738h55.74893c-4.36074,-11.39669 -15.19702,-19.46738 -27.87447,-19.46738z" fill="url(#color-1)" stroke="#303032" stroke-width="0.5" stroke-linecap="butt" stroke-linejoin="miter"/><path d="M-13.26774,369.60489v-20.77591h666.53556v20.77591z" fill="url(#color-2)" stroke="#303032" stroke-width="0.5" stroke-linecap="butt" stroke-linejoin="miter"/><g fill="none" stroke-opacity="0.27451" stroke="#ffffff" stroke-width="0.75" stroke-linecap="butt" stroke-linejoin="miter"><path d="M551.33363,366.24389c-1.10457,0 -2,-0.89543 -2,-2v-10.54422c0,-1.10457 0.89543,-2 2,-2h22.21963c1.10457,0 2,0.89543 2,2v10.54423c0,1.10457 -0.89543,2 -2,2z"/><path d="M548.23907,361.34707v-4.2462h1.09456v4.24621z"/></g><path d="M12.11719,364.85484c0,1.12097 -0.94335,2.0297 -2.10702,2.0297c-1.16367,0 -2.10701,-0.90873 -2.10701,-2.0297c0,-1.12097 0.94334,-2.02969 2.10701,-2.02969c1.16367,0 2.10702,0.90872 2.10702,2.02969z" fill-opacity="0.14902" fill="#000000" stroke-opacity="0.48235" stroke="#ffffff" stroke-width="0" stroke-linecap="butt" stroke-linejoin="miter"/><path d="M11.16574,360.07557c0,0 1.64066,-0.59711 2.7692,0.65496c1.28908,1.43018 0.95323,2.85997 0.95323,2.85997" fill="none" stroke-opacity="0.14902" stroke="#000000" stroke-width="1.5" stroke-linecap="round" stroke-linejoin="miter"/><path d="M11.01913,356.76659c0,0 2.2768,-0.82258 5.18949,1.65646c2.64137,2.32492 1.95474,5.50283 1.95474,5.50283" fill="none" stroke-opacity="0.14902" stroke="#000000" stroke-width="1.5" stroke-linecap="round" stroke-linejoin="round"/><path d="M-13.26774,347.02894v-6.03266h666.53556v6.03266z" fill="#000000" stroke="#303032" stroke-width="0.5" stroke-linecap="butt" stroke-linejoin="miter"/><path d="M11.29526,353.72691c0,0 0.36055,-0.06006 0.9657,-0.04547c1.30794,0.03152 3.75854,0.41169 6.18124,2.50037c2.80157,3.01078 2.67591,7.48604 2.67591,7.48604" fill="none" stroke-opacity="0.14902" stroke="#000000" stroke-width="1.5" stroke-linecap="round" stroke-linejoin="miter"/><path d="M548.23907,361.34707v-4.2462h1.09456v4.24621z" fill="url(#color-3)" stroke-opacity="0.11373" stroke="#ffffff" stroke-width="0.5" stroke-linecap="butt" stroke-linejoin="miter"/><path d="M11.69959,364.46507c0,1.12097 -0.94335,2.0297 -2.10702,2.0297c-1.16367,0 -2.10701,-0.90873 -2.10701,-2.0297c0,-1.12097 0.94334,-2.02969 2.10701,-2.02969c1.16367,0 2.10702,0.90872 2.10702,2.02969z" fill="url(#color-4)" stroke-opacity="0.48235" stroke="#ffffff" stroke-width="0.1" stroke-linecap="butt" stroke-linejoin="miter"/><path d="M40.97834,366.58856h-3.47076v-4.67423h-3.6201v4.67423h-3.47076v-5.81603h-3.50556l8.67957,-8.35744l8.67956,8.35744h-3.29195z" fill-opacity="0.14902" fill="#000000" stroke-opacity="0.48235" stroke="#ffffff" stroke-width="0" stroke-linecap="butt" stroke-linejoin="miter"/><text transform="translate(498.59193,365.83104) scale(0.36946,0.36946)" font-size="40" xml:space="preserve" fill-opacity="0.14902" fill="#000000" stroke="none" stroke-width="1" stroke-linecap="butt" stroke-linejoin="miter" font-family="&quot;SCE-PS3 Rodin LATIN Regular&quot;, Sans Serif" font-weight="normal" text-anchor="start"><tspan x="0" dy="0">14:12</tspan></text><text transform="translate(498.18253,365.42166) scale(0.36946,0.36946)" font-size="40" xml:space="preserve" fill="#fefeff" stroke="none" stroke-width="1" stroke-linecap="butt" stroke-linejoin="miter" font-family="&quot;SCE-PS3 Rodin LATIN Regular&quot;, Sans Serif" font-weight="normal" text-anchor="start"><tspan x="0" dy="0">14:12</tspan></text><path d="M40.97834,366.58856h-3.47076v-4.67423h-3.6201v4.67423h-3.47076v-5.81603h-3.50556l8.67957,-8.35744l8.67956,8.35744h-3.29195z" fill="none" stroke-opacity="0.48235" stroke="#ffffff" stroke-width="0.5" stroke-linecap="butt" stroke-linejoin="miter"/><path d="M40.97834,366.58856h-3.47076v-4.67423h-3.6201v4.67423h-3.47076v-5.81603h-3.50556l8.67957,-8.35744l8.67956,8.35744h-3.29195z" fill="url(#color-5)" stroke-opacity="0.48235" stroke="#ffffff" stroke-width="0" stroke-linecap="butt" stroke-linejoin="miter"/><path d="M-13.26774,349.73556v-360h666.53556v360z" fill="url(#color-6)" stroke="#303032" stroke-width="0" stroke-linecap="butt" stroke-linejoin="miter"/><path d="M-13.26774,348.14483v-1.80821h666.53556v1.80821z" fill="#252429" stroke="#303032" stroke-width="0.5" stroke-linecap="butt" stroke-linejoin="miter"/><path d="M-10.05038,346.5106v-6.03266h666.53556v6.03266z" fill="url(#color-7)" stroke="#303032" stroke-width="0" stroke-linecap="butt" stroke-linejoin="miter"/><path d="M650.22043,366.58856v6.03266h-666.53556v-6.03266z" fill="url(#color-8)" stroke="#303032" stroke-width="0" stroke-linecap="butt" stroke-linejoin="miter"/><path d="M651.29216,360.00006c0,3.35486 -0.52667,6.58378 -1.49998,9.60483h-56.85192c-0.97331,-3.02105 -1.49998,-6.24997 -1.49998,-9.60483c0,-3.94186 0.7271,-7.70986 2.05147,-11.17108h55.74893c1.32438,3.46122 2.05147,7.22922 2.05147,11.17108z" fill="url(#color-9)" stroke="none" stroke-width="0" stroke-linecap="butt" stroke-linejoin="miter"/><path d="M482.83337,366.63899l-1.37128,-1.46181v-13.05607c0,0 1.98413,-0.6922 6.06637,-0.70114c5.17961,-0.01133 6.47233,0.70114 6.47233,0.70114v15.75257l-9.82972,-0.02191z" fill="url(#color-10)" stroke="#303032" stroke-width="0" stroke-linecap="butt" stroke-linejoin="miter"/><path d="M482.83337,366.63899l-1.37128,-1.46181v-13.05607c0,0 0.19383,-0.06762 0.58498,-0.16087c-0.02086,0.11236 -0.03155,0.22645 -0.03155,0.34197c0,1.77123 2.51466,3.20708 5.61665,3.20708c3.10199,0 5.61665,-1.43586 5.61665,-3.20708c0,-0.14756 -0.01746,-0.2928 -0.05125,-0.43507c0.59242,0.13779 0.80323,0.25396 0.80323,0.25396v15.75257l-9.82972,-0.02191z" fill="url(#color-11)" stroke="#303032" stroke-width="0" stroke-linecap="butt" stroke-linejoin="miter"/><path d="M651.29216,360.00006c0,3.35486 -0.52667,6.58378 -1.49998,9.60483h-56.85192c-0.97331,-3.02105 -1.49998,-6.24997 -1.49998,-9.60483c0,-3.94186 0.7271,-7.70986 2.05147,-11.17108h55.74893c1.32438,3.46122 2.05147,7.22922 2.05147,11.17108z" fill="none" stroke="#303032" stroke-width="1" stroke-linecap="butt" stroke-linejoin="miter"/><path d="M483.08229,366.86263l-1.37128,-1.46181v-13.17643c0,0 1.48626,-0.57184 5.5685,-0.58078c5.17961,-0.01133 6.47233,0.70114 6.47233,0.70114v15.75257l-9.33185,-0.02191z" fill="url(#color-12)" stroke="#303032" stroke-width="0" stroke-linecap="butt" stroke-linejoin="miter"/><path d="M487.73143,367.1516l-2.46845,-1.80821h4.9369z" fill="url(#color-13)" stroke="none" stroke-width="0" stroke-linecap="butt" stroke-linejoin="miter"/><path d="M483.31397,363.89717v-11.09091h8.63637v11.09091z" fill="url(#color-14)" stroke="#303032" stroke-width="0" stroke-linecap="butt" stroke-linejoin="miter"/><path d="M593.19404,369.60486c-0.97331,-3.02105 -1.49998,-6.24997 -1.49998,-9.60483c0,-3.94186 0.7271,-7.70986 2.05147,-11.17108c0,0 -2.18154,7.351 -2.16853,11.17144c0.01145,3.36388 1.61704,9.60447 1.61704,9.60447z" fill="none" stroke-opacity="0.09804" stroke="#313133" stroke-width="1" stroke-linecap="butt" stroke-linejoin="miter"/><path d="M593.85777,369.60486c-0.97331,-3.02105 -1.49998,-6.24997 -1.49998,-9.60483c0,-3.94186 0.7271,-7.70986 2.05147,-11.17108c0,0 -2.18154,7.351 -2.16853,11.17144c0.01145,3.36388 1.61704,9.60447 1.61704,9.60447z" fill="none" stroke-opacity="0.09804" stroke="#313133" stroke-width="1" stroke-linecap="butt" stroke-linejoin="miter"/><path d="M594.52149,369.60486c-0.97331,-3.02105 -1.49998,-6.24997 -1.49998,-9.60483c0,-3.94186 0.7271,-7.70986 2.05147,-11.17108c0,0 -2.18154,7.351 -2.16853,11.17144c0.01145,3.36388 1.61704,9.60447 1.61704,9.60447z" fill="none" stroke-opacity="0.09804" stroke="#313133" stroke-width="1" stroke-linecap="butt" stroke-linejoin="miter"/><path d="M595.18522,369.60486c-0.97331,-3.02105 -1.49998,-6.24997 -1.49998,-9.60483c0,-3.94186 0.7271,-7.70986 2.05147,-11.17108c0,0 -2.18153,7.351 -2.16853,11.17144c0.01145,3.36388 1.61704,9.60447 1.61704,9.60447z" fill="none" stroke-opacity="0.09804" stroke="#313133" stroke-width="1" stroke-linecap="butt" stroke-linejoin="miter"/><path d="M595.18522,369.60486c-0.97331,-3.02105 -1.49998,-6.24997 -1.49998,-9.60483c0,-3.94186 0.7271,-7.70986 2.05147,-11.17108c0,0 -2.18154,7.351 -2.16853,11.17144c0.01145,3.36388 1.61704,9.60447 1.61704,9.60447z" fill="none" stroke-opacity="0.09804" stroke="#313133" stroke-width="1" stroke-linecap="butt" stroke-linejoin="miter"/><path d="M595.84894,369.60486c-0.97331,-3.02105 -1.49998,-6.24997 -1.49998,-9.60483c0,-3.94186 0.7271,-7.70986 2.05147,-11.17108c0,0 -2.18154,7.351 -2.16853,11.17144c0.01145,3.36388 1.61704,9.60447 1.61704,9.60447z" fill="none" stroke-opacity="0.09804" stroke="#313133" stroke-width="1" stroke-linecap="butt" stroke-linejoin="miter"/><path d="M-209.46895,296.34576v-502.37605h505.96946v502.37605z" fill="url(#color-15)" stroke="#303032" stroke-width="0" stroke-linecap="butt" stroke-linejoin="miter"/><path d="M483.31397,363.89717v-8.99562c1.01772,0.7083 2.54154,1.1583 4.24457,1.1583c1.78725,0 3.37712,-0.4956 4.3918,-1.26524v9.10256z" fill="#e6e6e6" stroke="#303032" stroke-width="0" stroke-linecap="butt" stroke-linejoin="miter"/><g stroke-opacity="0.11373" stroke="#ffffff" stroke-linecap="butt" stroke-linejoin="miter"><path d="M551.29446,366.24389c-1.10457,0 -2,-0.89543 -2,-2v-10.54422c0,-1.10457 0.89543,-2 2,-2h22.21963c1.10457,0 2,0.89543 2,2v10.54423c0,1.10457 -0.89543,2 -2,2z" fill="url(#color-16)" stroke-width="0.5"/><path d="M549.29446,358.8973v-5.13108h26.21963v5.13109z" fill="url(#color-17)" stroke-width="0"/><path d="M549.29446,359.64676v-0.73605h26.21963v0.73605z" fill="url(#color-18)" stroke-width="0"/><path d="M575.51406,352.5305v1.23572h-26.21963v-1.23572z" fill="url(#color-19)" stroke-width="0"/></g><path d="M149.30752,135.78314v0c0,0 -0.0457,0 -0.10206,0v0c-0.05636,0 -0.10204,0 -0.10204,0v0c0,0 0.04568,0 0.10204,0c0.05636,0 0.10206,0 0.10206,0z" fill="url(#color-20)" stroke="none" stroke-width="0" stroke-linecap="butt" stroke-linejoin="miter"/><g stroke="none" stroke-width="0" stroke-linecap="butt" stroke-linejoin="miter"><path d="M65.49715,167.33097c-3.31372,0 -6,-2.68628 -6,-6v-40.65306c0,-3.31372 2.68628,-6 6,-6h158c3.31372,0 6,2.68628 6,6v40.65306c0,3.31372 -2.68628,6 -6,6z" fill-opacity="0.05098" fill="#292929"/><path d="M66.29929,168.13313c-3.31372,0 -6,-2.68628 -6,-6v-40.65306c0,-3.31372 2.68628,-6 6,-6h158c3.31372,0 6,2.68628 6,6v40.65306c0,3.31372 -2.68628,6 -6,6z" fill-opacity="0.05098" fill="#292929"/><path d="M67.10143,168.93526c-3.31372,0 -6,-2.68628 -6,-6v-40.65306c0,-3.31372 2.68628,-6 6,-6h158c3.31372,0 6,2.68628 6,6v40.65306c0,3.31372 -2.68628,6 -6,6z" fill-opacity="0.05098" fill="#292929"/><g><path d="M64.95417,166.73452c-3.31372,0 -6,-2.68628 -6,-6v-40.65306c0,-3.31372 2.68628,-6 6,-6h158c3.31372,0 6,2.68628 6,6v40.65306c0,3.31372 -2.68628,6 -6,6z" fill="#292929"/><path d="M58.95417,120.23071c0,-3.31372 2.68628,-6.14924 6,-6.14924h158c3.31372,0 6,2.83554 6,6.14924c0,0 -18.49838,5.35744 -84.48672,4.92536c-57.95376,-0.37948 -85.51328,-4.92536 -85.51328,-4.92536z" fill="url(#color-21)"/><path d="M228.95418,160.58525c0,3.31372 -2.68628,6.14924 -6,6.14924h-158c-3.31372,0 -6,-2.83554 -6,-6.14924z" fill="url(#color-22)"/></g></g><g stroke="none" stroke-width="0" stroke-linecap="butt" stroke-linejoin="miter"><path d="M240.70259,167.87345c-3.31372,0 -6,-2.68628 -6,-6v-40.65306c0,-3.31372 2.68628,-6 6,-6h158c3.31372,0 6,2.68628 6,6v40.65306c0,3.31372 -2.68628,6 -6,6z" fill-opacity="0.05098" fill="#292929"/><path d="M241.50472,168.6756c-3.31372,0 -6,-2.68628 -6,-6v-40.65306c0,-3.31372 2.68628,-6 6,-6h158c3.31372,0 6,2.68628 6,6v40.65306c0,3.31372 -2.68628,6 -6,6z" fill-opacity="0.05098" fill="#292929"/><path d="M242.30688,169.47774c-3.31372,0 -6,-2.68628 -6,-6v-40.65306c0,-3.31372 2.68628,-6 6,-6h158c3.31372,0 6,2.68628 6,6v40.65306c0,3.31372 -2.68628,6 -6,6z" fill-opacity="0.05098" fill="#292929"/><g><path d="M240.1596,167.277c-3.31372,0 -6,-2.68628 -6,-6v-40.65306c0,-3.31372 2.68628,-6 6,-6h158c3.31372,0 6,2.68628 6,6v40.65306c0,3.31372 -2.68628,6 -6,6z" fill="#292929"/><path d="M234.1596,120.77317c0,-3.31372 2.68628,-6.14924 6,-6.14924h158c3.31372,0 6,2.83554 6,6.14924c0,0 -18.49838,5.35744 -84.48672,4.92536c-57.95376,-0.37948 -85.51328,-4.92536 -85.51328,-4.92536z" fill="url(#color-23)"/><path d="M404.15961,161.12774c0,3.31372 -2.68628,6.14924 -6,6.14924h-158c-3.31372,0 -6,-2.83554 -6,-6.14924z" fill="url(#color-24)"/></g></g><g stroke="none" stroke-width="0" stroke-linecap="butt" stroke-linejoin="miter"><path d="M412.84985,167.87345c-3.31372,0 -6,-2.68628 -6,-6v-40.65306c0,-3.31372 2.68628,-6 6,-6h158c3.31372,0 6,2.68628 6,6v40.65306c0,3.31372 -2.68628,6 -6,6z" fill-opacity="0.05098" fill="#292929"/><path d="M413.652,168.6756c-3.31372,0 -6,-2.68628 -6,-6v-40.65306c0,-3.31372 2.68628,-6 6,-6h158c3.31372,0 6,2.68628 6,6v40.65306c0,3.31372 -2.68628,6 -6,6z" fill-opacity="0.05098" fill="#292929"/><path d="M414.45414,169.47774c-3.31372,0 -6,-2.68628 -6,-6v-40.65306c0,-3.31372 2.68628,-6 6,-6h158c3.31372,0 6,2.68628 6,6v40.65306c0,3.31372 -2.68628,6 -6,6z" fill-opacity="0.05098" fill="#292929"/><g><path d="M412.30689,167.277c-3.31372,0 -6,-2.68628 -6,-6v-40.65306c0,-3.31372 2.68628,-6 6,-6h158c3.31372,0 6,2.68628 6,6v40.65306c0,3.31372 -2.68628,6 -6,6z" fill="#292929"/><path d="M406.30689,120.77317c0,-3.31372 2.68628,-6.14924 6,-6.14924h158c3.31372,0 6,2.83554 6,6.14924c0,0 -18.49838,5.35744 -84.48672,4.92536c-57.95376,-0.37948 -85.51328,-4.92536 -85.51328,-4.92536z" fill="url(#color-25)"/><path d="M576.30691,161.12774c0,3.31372 -2.68628,6.14924 -6,6.14924h-158c-3.31372,0 -6,-2.83554 -6,-6.14924z" fill="url(#color-26)"/></g></g><g stroke="none" stroke-width="0" stroke-linecap="butt" stroke-linejoin="miter"><path d="M41.1291,181.94266v-0.84968h557.27537v0.84968z" fill="#1a1a1a"/><path d="M41.1291,183.70516v-0.84968h557.27537v0.84968z" fill="#979797"/><path d="M41.1291,182.79233v-0.84968h557.27537v0.84968z" fill-opacity="0.1098" fill="#ffffff"/></g><g stroke="none" stroke-width="0" stroke-linecap="butt" stroke-linejoin="miter"><path d="M41.59555,242.67684v-0.84968h557.27537v0.84968z" fill="#1a1a1a"/><path d="M41.59555,244.43935v-0.84969h557.27537v0.84969z" fill="#979797"/><path d="M41.59555,243.52653v-0.84968h557.27537v0.84968z" fill-opacity="0.1098" fill="#ffffff"/></g><g stroke="none" stroke-width="0" stroke-linecap="butt" stroke-linejoin="miter"><path d="M315.50077,328.49904c-1.40254,0 -2.53951,-1.52769 -2.53951,-3.41221v-23.11943c0,-1.88452 1.13697,-3.41221 2.53951,-3.41221h66.87385c1.40254,0 2.53951,1.52769 2.53951,3.41221v23.11943c0,1.88452 -1.13697,3.41221 -2.53951,3.41221z" fill-opacity="0.05098" fill="#292929"/><path d="M315.8403,328.95518c-1.40254,0 -2.53951,-1.52769 -2.53951,-3.41221v-23.11943c0,-1.88452 1.13697,-3.41221 2.53951,-3.41221h66.87385c1.40254,0 2.53951,1.52769 2.53951,3.41221v23.11943c0,1.88452 -1.13697,3.41221 -2.53951,3.41221z" fill-opacity="0.05098" fill="#292929"/><path d="M316.17982,329.41137c-1.40254,0 -2.53951,-1.52769 -2.53951,-3.41221v-23.11943c0,-1.88452 1.13697,-3.41221 2.53951,-3.41221h66.87385c1.40254,0 2.53951,1.52769 2.53951,3.41221v23.11943c0,1.88452 -1.13697,3.41221 -2.53951,3.41221z" fill-opacity="0.05098" fill="#292929"/><g><path d="M315.27096,328.15982c-1.40254,0 -2.53951,-1.52769 -2.53951,-3.41221v-23.11943c0,-1.88452 1.13697,-3.41221 2.53951,-3.41221h66.87385c1.40254,0 2.53951,1.52769 2.53951,3.41221v23.11943c0,1.88452 -1.13697,3.41221 -2.53951,3.41221z" fill="#292929"/><path d="M312.73147,301.71306c0,-1.88452 1.13697,-3.49708 2.53951,-3.49708h66.87385c1.40254,0 2.53951,1.61257 2.53951,3.49708c0,0 -7.82948,3.04678 -35.75919,2.80106c-24.52906,-0.21581 -36.19369,-2.80106 -36.19369,-2.80106z" fill="url(#color-27)"/><path d="M384.68433,324.66272c0,1.88452 -1.13697,3.49708 -2.53951,3.49708h-66.87385c-1.40254,0 -2.53951,-1.61257 -2.53951,-3.49708z" fill="url(#color-28)"/></g></g><g stroke="none" stroke-width="0" stroke-linecap="butt" stroke-linejoin="miter"><path d="M407.95392,328.49904c-1.40254,0 -2.53951,-1.52769 -2.53951,-3.4122v-23.11943c0,-1.88452 1.13697,-3.41221 2.53951,-3.41221h66.87385c1.40254,0 2.53951,1.52769 2.53951,3.41221v23.11943c0,1.88452 -1.13697,3.4122 -2.53951,3.4122z" fill-opacity="0.05098" fill="#292929"/><path d="M408.29343,328.95521c-1.40254,0 -2.53951,-1.52769 -2.53951,-3.41221v-23.11944c0,-1.88452 1.13698,-3.4122 2.53951,-3.4122h66.87385c1.40254,0 2.53951,1.52769 2.53951,3.4122v23.11944c0,1.88452 -1.13698,3.41221 -2.53951,3.41221z" fill-opacity="0.05098" fill="#292929"/><path d="M408.63291,329.41137c-1.40254,0 -2.53951,-1.52769 -2.53951,-3.4122v-23.11943c0,-1.88452 1.13697,-3.4122 2.53951,-3.4122h66.87385c1.40254,0 2.53951,1.52769 2.53951,3.4122v23.11943c0,1.88452 -1.13697,3.4122 -2.53951,3.4122z" fill-opacity="0.05098" fill="#292929"/><g><path d="M407.72409,328.15982c-1.40254,0 -2.53951,-1.52769 -2.53951,-3.41221v-23.11943c0,-1.88452 1.13698,-3.41221 2.53951,-3.41221h66.87385c1.40254,0 2.53951,1.52769 2.53951,3.41221v23.11943c0,1.88452 -1.13698,3.41221 -2.53951,3.41221z" fill="#292929"/><path d="M405.18459,301.71306c0,-1.88452 1.13698,-3.49708 2.53951,-3.49708h66.87385c1.40254,0 2.53951,1.61257 2.53951,3.49708c0,0 -7.82948,3.04678 -35.75919,2.80106c-24.52906,-0.21581 -36.19369,-2.80106 -36.19369,-2.80106z" fill="url(#color-29)"/><path d="M477.13745,324.66272c0,1.88452 -1.13698,3.49707 -2.53951,3.49707h-66.87385c-1.40254,0 -2.53951,-1.61257 -2.53951,-3.49707z" fill="url(#color-30)"/></g></g><g stroke="none" stroke-width="0" stroke-linecap="butt" stroke-linejoin="miter"><path d="M500.40704,328.49904c-1.40254,0 -2.53951,-1.52769 -2.53951,-3.4122v-23.11943c0,-1.88452 1.13697,-3.41221 2.53951,-3.41221h66.87385c1.40254,0 2.53951,1.52769 2.53951,3.41221v23.11943c0,1.88452 -1.13697,3.4122 -2.53951,3.4122z" fill-opacity="0.05098" fill="#292929"/><path d="M500.74655,328.95521c-1.40254,0 -2.53951,-1.52769 -2.53951,-3.41221v-23.11944c0,-1.88452 1.13698,-3.4122 2.53951,-3.4122h66.87385c1.40254,0 2.53951,1.52769 2.53951,3.4122v23.11944c0,1.88452 -1.13697,3.41221 -2.53951,3.41221z" fill-opacity="0.05098" fill="#292929"/><path d="M501.08603,329.41137c-1.40254,0 -2.53951,-1.52769 -2.53951,-3.4122v-23.11943c0,-1.88452 1.13697,-3.4122 2.53951,-3.4122h66.87386c1.40254,0 2.53951,1.52769 2.53951,3.4122v23.11943c0,1.88452 -1.13697,3.4122 -2.53951,3.4122z" fill-opacity="0.05098" fill="#292929"/><g><path d="M500.17721,328.15982c-1.40254,0 -2.53951,-1.52769 -2.53951,-3.41221v-23.11943c0,-1.88452 1.13698,-3.41221 2.53951,-3.41221h66.87385c1.40254,0 2.53951,1.52769 2.53951,3.41221v23.11943c0,1.88452 -1.13697,3.41221 -2.53951,3.41221z" fill="#292929"/><path d="M497.63768,301.71306c0,-1.88452 1.13698,-3.49708 2.53951,-3.49708h66.87385c1.40254,0 2.53951,1.61257 2.53951,3.49708c0,0 -7.82948,3.04678 -35.7592,2.80106c-24.52906,-0.21581 -36.19368,-2.80106 -36.19368,-2.80106z" fill="url(#color-31)"/><path d="M569.59057,324.66272c0,1.88452 -1.13697,3.49707 -2.53951,3.49707h-66.87385c-1.40254,0 -2.53951,-1.61257 -2.53951,-3.49707z" fill="url(#color-32)"/></g></g><text transform="translate(59.39265,218.33975) scale(0.39319,0.39319)" font-size="40" xml:space="preserve" fill="#fcfcfc" stroke="none" stroke-width="1" stroke-linecap="butt" stroke-linejoin="miter" font-family="&quot;SCE-PS3 Rodin LATIN Regular&quot;, Sans Serif" font-weight="normal" text-anchor="start"><tspan x="0" dy="0">Brightness</tspan></text><text transform="translate(59.39265,279.41988) scale(0.39319,0.39319)" font-size="40" xml:space="preserve" fill="#fcfcfc" stroke="none" stroke-width="1" stroke-linecap="butt" stroke-linejoin="miter" font-family="&quot;SCE-PS3 Rodin LATIN Regular&quot;, Sans Serif" font-weight="normal" text-anchor="start"><tspan x="0" dy="0">Music</tspan></text><text transform="translate(59.39268,44.74351) scale(0.39319,0.39319)" font-size="40" xml:space="preserve" fill="#fcfcfc" stroke="none" stroke-width="1" stroke-linecap="butt" stroke-linejoin="miter" font-family="&quot;SCE-PS3 Rodin LATIN Regular&quot;, Sans Serif" font-weight="normal" text-anchor="start"><tspan x="0" dy="0">Network</tspan></text><text transform="translate(113.10363,144.61922) scale(0.26963,0.26963)" font-size="40" xml:space="preserve" fill="#ebebeb" stroke="none" stroke-width="1" stroke-linecap="butt" stroke-linejoin="miter" font-family="&quot;SCE-PS3 Rodin LATIN Regular&quot;, Sans Serif" font-weight="normal" text-anchor="start"><tspan x="0" dy="0">Flight Mode</tspan></text><text transform="translate(306.4282,145.1617) scale(0.26963,0.26963)" font-size="40" xml:space="preserve" fill="#ebebeb" stroke="none" stroke-width="1" stroke-linecap="butt" stroke-linejoin="miter" font-family="&quot;SCE-PS3 Rodin LATIN Regular&quot;, Sans Serif" font-weight="normal" text-anchor="start"><tspan x="0" dy="0">Wi-Fi</tspan></text><text transform="translate(439.77573,145.1617) scale(0.26963,0.26963)" font-size="40" xml:space="preserve" fill="#ebebeb" stroke="none" stroke-width="1" stroke-linecap="butt" stroke-linejoin="miter" font-family="&quot;SCE-PS3 Rodin LATIN Regular&quot;, Sans Serif" font-weight="normal" text-anchor="start"><tspan x="0" dy="0">Bluetooth® Feature</tspan></text><text transform="translate(6.42816,341.2583) scale(0.13018,0.13018)" font-size="40" xml:space="preserve" fill="#fcfcfc" stroke="none" stroke-width="1" stroke-linecap="butt" stroke-linejoin="miter" font-family="&quot;SCE-PS3 Rodin LATIN Regular&quot;, Sans Serif" font-weight="normal" text-anchor="start"><tspan x="0" dy="0">PS Vita recreation version 32 - Created by SaffiShark</tspan></text><text transform="translate(288.45479,361.88019) scale(0.13018,0.13018)" font-size="40" xml:space="preserve" fill-opacity="0.50196" fill="#fcfcfc" stroke="none" stroke-width="1" stroke-linecap="butt" stroke-linejoin="miter" font-family="&quot;SCE-PS3 Rodin LATIN Regular&quot;, Sans Serif" font-weight="normal" text-anchor="start"><tspan x="0" dy="0">Tap to open quick menu</tspan></text><g><path d="M10.74814,359.65798c0,0 1.64066,-0.59711 2.7692,0.65496c1.28908,1.43018 0.95323,2.85997 0.95323,2.85997" fill="none" stroke="url(#color-33)" stroke-width="1.5" stroke-linecap="round" stroke-linejoin="miter"/><path d="M10.60153,356.34896c0,0 2.2768,-0.82258 5.18949,1.65646c2.64137,2.32492 1.95474,5.50283 1.95474,5.50283" fill="none" stroke="url(#color-34)" stroke-width="1.5" stroke-linecap="round" stroke-linejoin="round"/><path d="M10.87766,353.30929c0,0 0.36055,-0.06006 0.9657,-0.04547c1.30794,0.03152 3.75854,0.41169 6.18124,2.50037c2.80157,3.01078 2.67591,7.48604 2.67591,7.48604" fill="none" stroke="url(#color-35)" stroke-width="1.5" stroke-linecap="round" stroke-linejoin="miter"/><path d="M7.48556,366.61377v-4.29741h4.55748v4.29741z" fill="url(#color-36)" stroke-opacity="0.48235" stroke="#ffffff" stroke-width="0.1" stroke-linecap="butt" stroke-linejoin="miter"/></g></g></g></svg>