<svg version="1.1" xmlns="http://www.w3.org/2000/svg" xmlns:xlink="http://www.w3.org/1999/xlink" width="14.60812" height="14.60812" viewBox="0,0,14.60812,14.60812"><defs><radialGradient cx="320" cy="180" r="7.30406" gradientUnits="userSpaceOnUse" id="color-1"><stop offset="0" stop-color="#ffffff"/><stop offset="1" stop-color="#ffffff" stop-opacity="0"/></radialGradient><radialGradient cx="320" cy="180" r="5" gradientUnits="userSpaceOnUse" id="color-2"><stop offset="0" stop-color="#ffffff"/><stop offset="1" stop-color="#e8e8e8"/></radialGradient></defs><g transform="translate(-312.69594,-172.69594)"><g stroke-miterlimit="10"><path d="M327.30406,180c0,4.03391 -3.27014,7.30406 -7.30406,7.30406c-4.03391,0 -7.30406,-3.27014 -7.30406,-7.30406c0,-4.03391 3.27014,-7.30406 7.30406,-7.30406c4.03391,0 7.30406,3.27014 7.30406,7.30406z" fill="url(#color-1)" stroke-opacity="0.14902" stroke="#ffffff" stroke-width="0"/><path d="M325,180c0,2.76142 -2.23858,5 -5,5c-2.76142,0 -5,-2.23858 -5,-5c0,-2.76142 2.23858,-5 5,-5c2.76142,0 5,2.23858 5,5z" fill="none" stroke-opacity="0.00392" stroke="#000000" stroke-width="0.5"/><path d="M325,180c0,2.76142 -2.23858,5 -5,5c-2.76142,0 -5,-2.23858 -5,-5c0,-2.76142 2.23858,-5 5,-5c2.76142,0 5,2.23858 5,5z" fill="url(#color-2)" stroke="none" stroke-width="0"/></g></g></svg>