<svg version="1.1" xmlns="http://www.w3.org/2000/svg" xmlns:xlink="http://www.w3.org/1999/xlink" width="14.0158" height="14.14995" viewBox="0,0,14.0158,14.14995"><defs><linearGradient x1="318.5356" y1="179.57801" x2="318.5356" y2="183.23522" gradientUnits="userSpaceOnUse" id="color-1"><stop offset="0" stop-color="#f0f0f2"/><stop offset="1" stop-color="#d4d4d6"/></linearGradient><linearGradient x1="320.08582" y1="176.39587" x2="320.08582" y2="183.57058" gradientUnits="userSpaceOnUse" id="color-2"><stop offset="0" stop-color="#f0f0f2"/><stop offset="1" stop-color="#d4d4d6"/></linearGradient><linearGradient x1="321.69605" y1="173.32387" x2="321.69605" y2="183.31256" gradientUnits="userSpaceOnUse" id="color-3"><stop offset="0" stop-color="#f0f0f2"/><stop offset="1" stop-color="#d4d4d6"/></linearGradient><linearGradient x1="313.3921" y1="184.52741" x2="317.94958" y2="184.52741" gradientUnits="userSpaceOnUse" id="color-4"><stop offset="0" stop-color="#dadadd"/><stop offset="1" stop-color="#b9b7b7"/></linearGradient></defs><g transform="translate(-313.3421,-172.57617)"><g stroke-miterlimit="10"><path d="M316.65468,179.7203c0,0 1.64066,-0.59711 2.7692,0.65496c1.28908,1.43018 0.95323,2.85997 0.95323,2.85997" fill="none" stroke="url(#color-1)" stroke-width="1.5" stroke-linecap="round" stroke-linejoin="miter"/><path d="M316.50807,176.41131c0,0 2.2768,-0.82258 5.18949,1.65646c2.64137,2.32492 1.95474,5.50283 1.95474,5.50283" fill="none" stroke="url(#color-2)" stroke-width="1.5" stroke-linecap="round" stroke-linejoin="round"/><path d="M316.7842,173.37164c0,0 0.36055,-0.06006 0.9657,-0.04547c1.30794,0.03152 3.75854,0.41169 6.18124,2.50037c2.80157,3.01078 2.67591,7.48604 2.67591,7.48604" fill="none" stroke="url(#color-3)" stroke-width="1.5" stroke-linecap="round" stroke-linejoin="miter"/><path d="M313.3921,186.67612v-4.29741h4.55749v4.29741z" fill="url(#color-4)" stroke-opacity="0.48235" stroke="#ffffff" stroke-width="0.1" stroke-linecap="butt" stroke-linejoin="miter"/></g></g></svg>