<svg version="1.1" xmlns="http://www.w3.org/2000/svg" xmlns:xlink="http://www.w3.org/1999/xlink" width="1277.5773" height="139.78174" viewBox="0,0,1277.5773,139.78174"><defs><linearGradient x1="318.95991" y1="221.69013" x2="318.95991" y2="361.47187" gradientUnits="userSpaceOnUse" id="color-1"><stop offset="0" stop-color="#acd3fa" stop-opacity="0.50588"/><stop offset="1" stop-color="#4ea0f2" stop-opacity="0.50588"/></linearGradient><linearGradient x1="956.95187" y1="221.69013" x2="956.95187" y2="361.47187" gradientUnits="userSpaceOnUse" id="color-2"><stop offset="0" stop-color="#acd3fa" stop-opacity="0.50588"/><stop offset="1" stop-color="#4ea0f2" stop-opacity="0.50588"/></linearGradient></defs><g transform="translate(0.83276,-221.69013)"><g stroke="#000000" stroke-width="0" stroke-miterlimit="10"><path d="M546.10552,359.7266l-546.93828,-0.90124c0,0 0.86423,-137.2616 2.468,-137.13514c0.22628,0.01783 48.95697,8.67947 52.92175,9.90059c22.04674,6.79016 90.2442,29.93056 96.56247,31.6037c22.93561,6.0736 66.2735,18.34512 81.68053,20.86809c11.96259,1.95892 36.8289,8.37457 40.80952,8.72165c22.66511,1.97625 56.78715,4.59176 70.0258,3.72996c19.6592,-1.27977 41.5623,-3.0631 52.06158,-5.14445c39.90996,-7.91166 100.13926,-20.12952 118.52916,-25.36433c25.89047,-7.36991 51.97376,-14.78265 56.92271,-16.14527c16.92412,-4.6598 66.86851,-18.4112 66.86851,-18.4112l0.7353,130.02291z" fill="url(#color-1)"/><path d="M637.15919,361.47187l0.73529,-130.02291c0,0 49.94439,13.7514 66.86852,18.4112c4.94895,1.36262 31.03224,8.77537 56.92272,16.14527c18.3899,5.2348 78.6192,17.45267 118.52916,25.36433c10.49928,2.08135 32.40239,3.86468 52.06159,5.14445c13.23865,0.86179 47.36069,-1.75371 70.0258,-3.72996c3.98062,-0.34708 28.84693,-6.76274 40.80952,-8.72165c15.40702,-2.52296 58.74492,-14.79449 81.68053,-20.86809c6.31827,-1.67314 74.51573,-24.81354 96.56247,-31.6037c3.96478,-1.22111 52.69547,-9.88275 52.92175,-9.90059c1.60378,-0.12646 2.468,137.13514 2.468,137.13514l-546.93828,0.90124z" fill="url(#color-2)"/></g></g></svg>