<svg version="1.1" xmlns="http://www.w3.org/2000/svg" xmlns:xlink="http://www.w3.org/1999/xlink" width="30.87389" height="43.0839" viewBox="0,0,30.87389,43.0839"><defs><linearGradient x1="320" y1="158.45805" x2="320" y2="201.54195" gradientUnits="userSpaceOnUse" id="color-1"><stop offset="0" stop-color="#e3e3e3" stop-opacity="0.4"/><stop offset="1" stop-color="#ffffff" stop-opacity="0.4"/></linearGradient></defs><g transform="translate(-304.56306,-158.45805)"><g stroke="#000000" stroke-miterlimit="10"><path d="M335.43695,180c0,5.85296 -0.36449,12.46895 -3.07919,16.35141c-2.80346,4.0094 -8.02639,5.19054 -12.35775,5.19054c-3.92753,0 -8.8207,-0.38973 -11.5452,-3.76066c-3.18964,-3.94643 -3.89175,-11.36479 -3.89175,-17.78128c0,-6.0204 0.7232,-12.51054 3.57636,-16.41944c2.78515,-3.81573 7.64922,-5.1225 11.86059,-5.1225c4.33776,0 9.56587,1.53736 12.37018,5.55719c2.70738,3.88088 3.06676,10.14073 3.06676,15.98476z" fill="url(#color-1)" stroke-width="0" stroke-linecap="butt"/><path d="M312.36745,172.34501l16.02716,14.84288l-8.68467,8.68467l0.47371,-16.10611l-7.9741,8.05305" fill="none" stroke-width="2.5" stroke-linecap="butt"/><path d="M320.34155,179.5296l7.18458,-7.02669l-7.42144,-7.10564l0.07895,14.05337" fill="none" stroke-width="2.5" stroke-linecap="round"/></g></g></svg>