<svg version="1.1" xmlns="http://www.w3.org/2000/svg" xmlns:xlink="http://www.w3.org/1999/xlink" width="2104.30727" height="179.55007" viewBox="0,0,2104.30727,179.55007"><defs><linearGradient x1="1123.89786" y1="180" x2="1123.89786" y2="333.0393" gradientUnits="userSpaceOnUse" id="color-1"><stop offset="0" stop-color="#ffffff" stop-opacity="0.41961"/><stop offset="1" stop-color="#b1d8ff" stop-opacity="0.43529"/></linearGradient></defs><g transform="translate(2.00878,-180.00001)"><g fill="url(#color-1)" stroke="#000000" stroke-width="0" stroke-miterlimit="10"><path d="M894.33891,357.13996l-896.34769,2.00254c0,0 2.95189,-178.62754 3.85729,-178.49365c10.82532,1.60096 109.19901,13.97364 169.29061,28.43888c36.13121,9.37661 65.52374,12.43955 75.87843,14.75001c37.58794,8.38711 108.61209,25.333 133.86182,28.81698c19.60484,2.7051 60.3569,11.56453 66.88052,12.04383c37.14463,2.72902 93.0654,6.34081 114.76151,5.15075c32.2184,-1.76725 68.11421,-4.22986 85.32092,-7.10402c65.40628,-10.9253 164.11284,-27.79708 194.25106,-35.02588c42.4305,-10.17719 57.04174,-15.69261 94.23152,-22.51322c37.18978,-6.82062 72.45496,-17.43196 120.02927,-16.78228c47.57433,0.64969 104.80501,6.36489 164.20591,20.66385c36.13121,9.37661 65.52374,12.43955 75.87841,14.75001c37.58794,8.38711 108.61209,25.333 133.86182,28.81698c19.60484,2.7051 60.3569,11.56453 66.88052,12.04383c37.14463,2.72902 93.0654,6.34081 114.76151,5.15075c32.2184,-1.76725 68.11421,-4.22986 85.32092,-7.10402c65.40628,-10.9253 164.11284,-27.79708 194.25106,-35.02588c42.4305,-10.17719 85.177,-20.41353 93.28756,-22.29519c27.73603,-6.43477 116.29157,-25.42422 116.29157,-25.42422l1.20504,179.55007l-158.53863,-2.41009l-890.88513,1.99033l0.00282,0.41974z"/></g></g></svg>