<svg version="1.1" xmlns="http://www.w3.org/2000/svg" xmlns:xlink="http://www.w3.org/1999/xlink" width="66.67247" height="68.2599" viewBox="0,0,66.67247,68.2599"><defs><linearGradient x1="621.53179" y1="-21.69308" x2="621.53179" y2="39.58384" gradientUnits="userSpaceOnUse" id="color-1"><stop offset="0" stop-color="#1e4482"/><stop offset="1" stop-color="#6490c1"/></linearGradient><linearGradient x1="621.36694" y1="-21.69308" x2="621.36694" y2="17.65836" gradientUnits="userSpaceOnUse" id="color-2"><stop offset="0" stop-color="#ffffff" stop-opacity="0.55294"/><stop offset="1" stop-color="#ffffff" stop-opacity="0.03922"/></linearGradient><radialGradient cx="621.53179" cy="8.94538" r="30.63846" gradientUnits="userSpaceOnUse" id="color-3"><stop offset="0" stop-color="#ffffff" stop-opacity="0"/><stop offset="1" stop-color="#ffffff" stop-opacity="0.08627"/></radialGradient><radialGradient cx="621.53179" cy="8.94538" r="29.92594" gradientUnits="userSpaceOnUse" id="color-4"><stop offset="0.95755" stop-color="#ffffff" stop-opacity="0"/><stop offset="1" stop-color="#ffffff" stop-opacity="0.07843"/></radialGradient></defs><g transform="translate(-588.19556,25.18457)"><g stroke-opacity="0.11373" stroke="#ffffff" stroke-width="0" stroke-miterlimit="10"><g fill-opacity="0.03137" fill="#000000"><path d="M651.45773,8.94538c0,16.92116 -13.3983,30.63846 -29.92594,30.63846c-16.52764,0 -29.92594,-13.71731 -29.92594,-30.63846c0,-16.92115 13.3983,-30.63846 29.92594,-30.63846c16.52764,0 29.92594,13.71731 29.92594,30.63846z"/><path d="M648.64708,8.94538c0,15.33192 -12.13993,27.76089 -27.11529,27.76089c-14.97536,0 -27.11529,-12.42898 -27.11529,-27.76089c0,-15.33191 12.13993,-27.76089 27.11529,-27.76089c14.97536,0 27.11529,12.42898 27.11529,27.76089z"/><path d="M644.88166,8.94538c0,13.20282 -10.45409,23.90582 -23.34987,23.90582c-12.89578,0 -23.34987,-10.703 -23.34987,-23.90582c0,-13.20281 10.45409,-23.90582 23.34987,-23.90582c12.89578,0 23.34987,10.703 23.34987,23.90582z"/><path d="M641.34169,8.94538c0,11.2012 -8.86919,20.28156 -19.80989,20.28156c-10.9407,0 -19.80989,-9.08037 -19.80989,-20.28156c0,-11.20119 8.86919,-20.28156 19.80989,-20.28156c10.9407,0 19.80989,9.08037 19.80989,20.28156z"/><path d="M639.68007,8.94538c0,10.26166 -8.12526,18.58038 -18.14828,18.58038c-10.02301,0 -18.14828,-8.31873 -18.14828,-18.58038c0,-10.26165 8.12526,-18.58038 18.14828,-18.58038c10.02301,0 18.14828,8.31873 18.14828,18.58038z"/><path d="M653.52874,8.94538c0,18.09218 -14.32552,32.75877 -31.99694,32.75877c-17.67142,0 -31.99694,-14.6666 -31.99694,-32.75877c0,-18.09217 14.32552,-32.75877 31.99694,-32.75877c17.67143,0 31.99694,14.66661 31.99694,32.75878z"/><path d="M654.86803,8.94538c0,18.84946 -14.92515,34.12995 -33.33624,34.12995c-18.41109,0 -33.33623,-15.2805 -33.33623,-34.12995c0,-18.84945 14.92514,-34.12995 33.33623,-34.12995c18.41109,0 33.33624,15.2805 33.33624,34.12995z"/></g><g><path d="M651.45773,8.94538c0,16.92116 -13.3983,30.63846 -29.92594,30.63846c-16.52764,0 -29.92594,-13.71731 -29.92594,-30.63846c0,-16.92115 13.3983,-30.63846 29.92594,-30.63846c16.52764,0 29.92594,13.71731 29.92594,30.63846z" fill="url(#color-1)"/><path d="M643.70962,-2.01736c0,10.8666 -10.00316,19.67572 -22.34269,19.67572c-12.33952,0 -22.34269,-8.80912 -22.34269,-19.67572c0,-10.8666 10.00317,-19.67571 22.34269,-19.67571c12.33952,0 22.34269,8.80911 22.34269,19.67571z" fill="url(#color-2)"/><path d="M651.45773,8.94538c0,16.92116 -13.3983,30.63846 -29.92594,30.63846c-16.52764,0 -29.92594,-13.71731 -29.92594,-30.63846c0,-16.92115 13.3983,-30.63846 29.92594,-30.63846c16.52764,0 29.92594,13.71731 29.92594,30.63846z" fill="url(#color-3)"/><path d="M651.45773,8.94538c0,16.92116 -13.3983,30.63846 -29.92594,30.63846c-16.52764,0 -29.92594,-13.71731 -29.92594,-30.63846c0,-16.92115 13.3983,-30.63846 29.92594,-30.63846c16.52764,0 29.92594,13.71731 29.92594,30.63846z" fill="url(#color-4)"/></g></g></g></svg>