<svg version="1.1" xmlns="http://www.w3.org/2000/svg" xmlns:xlink="http://www.w3.org/1999/xlink" width="49.22246" height="5.74331" viewBox="0,0,49.22246,5.74331"><defs><linearGradient x1="145.02783" y1="105.47347" x2="145.02783" y2="110.71678" gradientUnits="userSpaceOnUse" id="color-1"><stop offset="0" stop-color="#8bb260"/><stop offset="1" stop-color="#ffffff"/></linearGradient><radialGradient cx="145.02783" cy="108.44256" r="24.36123" gradientUnits="userSpaceOnUse" id="color-2"><stop offset="0" stop-color="#9ad758"/><stop offset="1" stop-color="#84aa5c"/></radialGradient></defs><g transform="translate(-120.41659,-105.22346)"><g stroke-opacity="0.25098" stroke="#000000" stroke-miterlimit="10"><path d="M121.1666,110.71678c-0.27614,0 -0.5,-0.22386 -0.5,-0.5v-4.24331c0,-0.27614 0.22386,-0.5 0.5,-0.5h47.72246c0.27614,0 0.5,0.22386 0.5,0.5v4.24331c0,0.27614 -0.22386,0.5 -0.5,0.5z" fill="url(#color-1)" stroke-width="0.5"/><path d="M121.1666,110.71678c-0.27614,0 -0.5,-0.22386 -0.5,-0.5v-4.3972c3.62209,1.12408 13.16219,0.92408 24.36123,0.92408c11.19904,0 20.73914,0.2 24.36123,-0.92408v4.3972c0,0.27614 -0.22386,0.5 -0.5,0.5z" fill="url(#color-2)" stroke-width="0"/></g></g></svg>