<svg version="1.1" xmlns="http://www.w3.org/2000/svg" xmlns:xlink="http://www.w3.org/1999/xlink" width="667.03556" height="68.2599" viewBox="0,0,667.03556,68.2599"><defs><linearGradient x1="323.14275" y1="0.23458" x2="323.14275" y2="21.01049" gradientUnits="userSpaceOnUse" id="color-1"><stop offset="0" stop-color="#060608"/><stop offset="1" stop-color="#26252a"/></linearGradient><linearGradient x1="621.53179" y1="-21.69308" x2="621.53179" y2="39.58384" gradientUnits="userSpaceOnUse" id="color-2"><stop offset="0" stop-color="#1e4482"/><stop offset="1" stop-color="#6490c1"/></linearGradient><linearGradient x1="621.36694" y1="-21.69308" x2="621.36694" y2="17.65836" gradientUnits="userSpaceOnUse" id="color-3"><stop offset="0" stop-color="#ffffff" stop-opacity="0.55294"/><stop offset="1" stop-color="#ffffff" stop-opacity="0.03922"/></linearGradient><radialGradient cx="621.53179" cy="8.94538" r="30.63846" gradientUnits="userSpaceOnUse" id="color-4"><stop offset="0" stop-color="#ffffff" stop-opacity="0"/><stop offset="1" stop-color="#ffffff" stop-opacity="0.08627"/></radialGradient><radialGradient cx="621.53179" cy="8.94538" r="29.92594" gradientUnits="userSpaceOnUse" id="color-5"><stop offset="0.95755" stop-color="#ffffff" stop-opacity="0"/><stop offset="1" stop-color="#ffffff" stop-opacity="0.07843"/></radialGradient><linearGradient x1="565.58618" y1="3.10525" x2="565.58618" y2="17.64948" gradientUnits="userSpaceOnUse" id="color-6"><stop offset="0" stop-color="#a4bb61"/><stop offset="1" stop-color="#5e9e2e"/></linearGradient><linearGradient x1="565.58618" y1="4.96038" x2="565.58618" y2="16.21709" gradientUnits="userSpaceOnUse" id="color-7"><stop offset="0" stop-color="#ffffff" stop-opacity="0.49804"/><stop offset="1" stop-color="#ffffff" stop-opacity="0"/></linearGradient><linearGradient x1="565.58618" y1="4.37976" x2="565.58618" y2="4.96038" gradientUnits="userSpaceOnUse" id="color-8"><stop offset="0" stop-color="#ffffff" stop-opacity="0"/><stop offset="1" stop-color="#ffffff" stop-opacity="0.49804"/></linearGradient><linearGradient x1="551.92909" y1="8.50649" x2="551.92909" y2="12.7527" gradientUnits="userSpaceOnUse" id="color-9"><stop offset="0" stop-color="#b1cb8a"/><stop offset="1" stop-color="#8bb55c"/></linearGradient><linearGradient x1="12.73529" y1="13.84099" x2="12.73529" y2="17.90038" gradientUnits="userSpaceOnUse" id="color-10"><stop offset="0" stop-color="#dadadd"/><stop offset="1" stop-color="#b9b7b7"/></linearGradient><linearGradient x1="15.77177" y1="10.92126" x2="15.77177" y2="14.57849" gradientUnits="userSpaceOnUse" id="color-11"><stop offset="0" stop-color="#f0f0f2"/><stop offset="1" stop-color="#d4d4d6"/></linearGradient><linearGradient x1="17.32199" y1="7.73914" x2="17.32199" y2="14.91384" gradientUnits="userSpaceOnUse" id="color-12"><stop offset="0" stop-color="#f0f0f2"/><stop offset="1" stop-color="#d4d4d6"/></linearGradient><linearGradient x1="18.93222" y1="4.66713" x2="18.93222" y2="14.65582" gradientUnits="userSpaceOnUse" id="color-13"><stop offset="0" stop-color="#f0f0f2"/><stop offset="1" stop-color="#d4d4d6"/></linearGradient><linearGradient x1="319.96262" y1="3.10526" x2="319.96262" y2="17.27873" gradientUnits="userSpaceOnUse" id="color-14"><stop offset="0" stop-color="#dadadd"/><stop offset="1" stop-color="#b9b7b7"/></linearGradient><linearGradient x1="490.87413" y1="2.82544" x2="490.87413" y2="19.27928" gradientUnits="userSpaceOnUse" id="color-15"><stop offset="0" stop-color="#0c9bed"/><stop offset="1" stop-color="#62baec"/></linearGradient><radialGradient cx="490.87413" cy="11.05236" r="8.22692" gradientUnits="userSpaceOnUse" id="color-16"><stop offset="0" stop-color="#98d3f5" stop-opacity="0"/><stop offset="1" stop-color="#98d3f5" stop-opacity="0.27843"/></radialGradient><linearGradient x1="490.87413" y1="16.74902" x2="490.87413" y2="18.55722" gradientUnits="userSpaceOnUse" id="color-17"><stop offset="0" stop-color="#00243c"/><stop offset="1" stop-color="#002337"/></linearGradient></defs><g transform="translate(10.37503,25.18457)"><g stroke-miterlimit="10"><path d="M-10.12503,21.01049v-20.77591h666.53556v20.77591z" fill="url(#color-1)" stroke="#303032" stroke-width="0.5" stroke-linecap="butt" stroke-linejoin="miter"/><g fill="none" stroke-opacity="0.27451" stroke="#ffffff" stroke-width="0.75" stroke-linecap="butt" stroke-linejoin="miter"><path d="M554.47637,17.64948c-1.10457,0 -2,-0.89543 -2,-2v-10.54422c0,-1.10457 0.89543,-2 2,-2h22.21963c1.10457,0 2,0.89543 2,2v10.54423c0,1.10457 -0.89543,2 -2,2z"/><path d="M551.38181,12.7527v-4.2462h1.09456v4.24621z"/></g><g fill-opacity="0.03137" fill="#000000" stroke-opacity="0.11373" stroke="#ffffff" stroke-width="0" stroke-linecap="butt" stroke-linejoin="miter"><path d="M651.45773,8.94538c0,16.92116 -13.3983,30.63846 -29.92594,30.63846c-16.52764,0 -29.92594,-13.71731 -29.92594,-30.63846c0,-16.92115 13.3983,-30.63846 29.92594,-30.63846c16.52764,0 29.92594,13.71731 29.92594,30.63846z"/><path d="M648.64708,8.94538c0,15.33192 -12.13993,27.76089 -27.11529,27.76089c-14.97536,0 -27.11529,-12.42898 -27.11529,-27.76089c0,-15.33191 12.13993,-27.76089 27.11529,-27.76089c14.97536,0 27.11529,12.42898 27.11529,27.76089z"/><path d="M644.88166,8.94538c0,13.20282 -10.45409,23.90582 -23.34987,23.90582c-12.89578,0 -23.34987,-10.703 -23.34987,-23.90582c0,-13.20281 10.45409,-23.90582 23.34987,-23.90582c12.89578,0 23.34987,10.703 23.34987,23.90582z"/><path d="M641.34169,8.94538c0,11.2012 -8.86919,20.28156 -19.80989,20.28156c-10.9407,0 -19.80989,-9.08037 -19.80989,-20.28156c0,-11.20119 8.86919,-20.28156 19.80989,-20.28156c10.9407,0 19.80989,9.08037 19.80989,20.28156z"/><path d="M639.68007,8.94538c0,10.26166 -8.12526,18.58038 -18.14828,18.58038c-10.02301,0 -18.14828,-8.31873 -18.14828,-18.58038c0,-10.26165 8.12526,-18.58038 18.14828,-18.58038c10.02301,0 18.14828,8.31873 18.14828,18.58038z"/><path d="M653.52874,8.94538c0,18.09218 -14.32552,32.75877 -31.99694,32.75877c-17.67142,0 -31.99694,-14.6666 -31.99694,-32.75877c0,-18.09217 14.32552,-32.75877 31.99694,-32.75877c17.67143,0 31.99694,14.66661 31.99694,32.75878z"/><path d="M654.86803,8.94538c0,18.84946 -14.92515,34.12995 -33.33624,34.12995c-18.41109,0 -33.33623,-15.2805 -33.33623,-34.12995c0,-18.84945 14.92514,-34.12995 33.33623,-34.12995c18.41109,0 33.33624,15.2805 33.33624,34.12995z"/></g><g stroke-opacity="0.11373" stroke="#ffffff" stroke-width="0" stroke-linecap="butt" stroke-linejoin="miter"><path d="M651.45773,8.94538c0,16.92116 -13.3983,30.63846 -29.92594,30.63846c-16.52764,0 -29.92594,-13.71731 -29.92594,-30.63846c0,-16.92115 13.3983,-30.63846 29.92594,-30.63846c16.52764,0 29.92594,13.71731 29.92594,30.63846z" fill="url(#color-2)"/><path d="M643.70962,-2.01736c0,10.8666 -10.00316,19.67572 -22.34269,19.67572c-12.33952,0 -22.34269,-8.80912 -22.34269,-19.67572c0,-10.8666 10.00317,-19.67571 22.34269,-19.67571c12.33952,0 22.34269,8.80911 22.34269,19.67571z" fill="url(#color-3)"/><path d="M651.45773,8.94538c0,16.92116 -13.3983,30.63846 -29.92594,30.63846c-16.52764,0 -29.92594,-13.71731 -29.92594,-30.63846c0,-16.92115 13.3983,-30.63846 29.92594,-30.63846c16.52764,0 29.92594,13.71731 29.92594,30.63846z" fill="url(#color-4)"/><path d="M651.45773,8.94538c0,16.92116 -13.3983,30.63846 -29.92594,30.63846c-16.52764,0 -29.92594,-13.71731 -29.92594,-30.63846c0,-16.92115 13.3983,-30.63846 29.92594,-30.63846c16.52764,0 29.92594,13.71731 29.92594,30.63846z" fill="url(#color-5)"/></g><path d="M15.2599,16.26044c0,1.12097 -0.94335,2.0297 -2.10702,2.0297c-1.16367,0 -2.10701,-0.90873 -2.10701,-2.0297c0,-1.12097 0.94334,-2.02969 2.10701,-2.02969c1.16367,0 2.10702,0.90872 2.10702,2.02969z" fill-opacity="0.14902" fill="#000000" stroke-opacity="0.48235" stroke="#ffffff" stroke-width="0" stroke-linecap="butt" stroke-linejoin="miter"/><path d="M14.30845,11.48116c0,0 1.64066,-0.59711 2.7692,0.65496c1.28908,1.43018 0.95323,2.85997 0.95323,2.85997" fill="none" stroke-opacity="0.14902" stroke="#000000" stroke-width="1.5" stroke-linecap="round" stroke-linejoin="miter"/><path d="M14.16184,8.17216c0,0 2.2768,-0.82258 5.18949,1.65646c2.64137,2.32492 1.95474,5.50283 1.95474,5.50283" fill="none" stroke-opacity="0.14902" stroke="#000000" stroke-width="1.5" stroke-linecap="round" stroke-linejoin="round"/><path d="M14.43797,5.13249c0,0 0.36055,-0.06006 0.9657,-0.04547c1.30794,0.03152 3.75854,0.41169 6.18124,2.50037c2.80157,3.01078 2.67591,7.48604 2.67591,7.48604" fill="none" stroke-opacity="0.14902" stroke="#000000" stroke-width="1.5" stroke-linecap="round" stroke-linejoin="miter"/><g stroke-opacity="0.11373" stroke="#ffffff" stroke-linecap="butt" stroke-linejoin="miter"><path d="M554.47637,17.64948c-1.10457,0 -2,-0.89543 -2,-2v-10.54422c0,-1.10457 0.89543,-2 2,-2h22.21963c1.10457,0 2,0.89543 2,2v10.54423c0,1.10457 -0.89543,2 -2,2z" fill="url(#color-6)" stroke-width="0.5"/><path d="M552.47637,16.21709v-11.2567h26.21963v11.25671z" fill="url(#color-7)" stroke-width="0"/><path d="M552.47637,4.96038v-0.58062h26.21963v0.58062z" fill="url(#color-8)" stroke-width="0"/><path d="M551.38181,12.7527v-4.2462h1.09456v4.24621z" fill="url(#color-9)" stroke-width="0.5"/></g><path d="M14.8423,15.87068c0,1.12097 -0.94335,2.0297 -2.10702,2.0297c-1.16367,0 -2.10701,-0.90873 -2.10701,-2.0297c0,-1.12097 0.94334,-2.02969 2.10701,-2.02969c1.16367,0 2.10702,0.90872 2.10702,2.02969z" fill="url(#color-10)" stroke-opacity="0.48235" stroke="#ffffff" stroke-width="0.1" stroke-linecap="butt" stroke-linejoin="miter"/><path d="M13.89085,11.06356c0,0 1.64066,-0.59711 2.7692,0.65496c1.28908,1.43018 0.95323,2.85997 0.95323,2.85997" fill="none" stroke="url(#color-11)" stroke-width="1.5" stroke-linecap="round" stroke-linejoin="miter"/><path d="M13.74424,7.75456c0,0 2.2768,-0.82258 5.18949,1.65646c2.64137,2.32492 1.95474,5.50283 1.95474,5.50283" fill="none" stroke="url(#color-12)" stroke-width="1.5" stroke-linecap="round" stroke-linejoin="round"/><path d="M14.02037,4.71489c0,0 0.36055,-0.06006 0.9657,-0.04547c1.30794,0.03152 3.75854,0.41169 6.18124,2.50037c2.80157,3.01078 2.67591,7.48604 2.67591,7.48604" fill="none" stroke="url(#color-13)" stroke-width="1.5" stroke-linecap="round" stroke-linejoin="miter"/><path d="M325.78077,17.70927h-3.47076v-4.67423h-3.6201v4.67423h-3.47076v-5.81603h-3.50556l8.67957,-8.35744l8.67956,8.35744h-3.29195z" fill-opacity="0.14902" fill="#000000" stroke-opacity="0.48235" stroke="#ffffff" stroke-width="0" stroke-linecap="butt" stroke-linejoin="miter"/><text transform="translate(501.73462,17.23666) scale(0.36946,0.36946)" font-size="40" xml:space="preserve" fill-opacity="0.14902" fill="#000000" stroke="none" stroke-width="1" stroke-linecap="butt" stroke-linejoin="miter" font-family="&quot;SCE-PS3 Rodin LATIN Regular&quot;, Sans Serif" font-weight="normal" text-anchor="start"><tspan x="0" dy="0">14:12</tspan></text><text transform="translate(501.32523,16.82727) scale(0.36946,0.36946)" font-size="40" xml:space="preserve" fill="#fefeff" stroke="none" stroke-width="1" stroke-linecap="butt" stroke-linejoin="miter" font-family="&quot;SCE-PS3 Rodin LATIN Regular&quot;, Sans Serif" font-weight="normal" text-anchor="start"><tspan x="0" dy="0">14:12</tspan></text><path d="M325.35023,17.27873h-3.47076v-4.67423h-3.6201v4.67423h-3.47076v-5.81603h-3.50556l8.67957,-8.35744l8.67956,8.35744h-3.29195z" fill="none" stroke-opacity="0.48235" stroke="#ffffff" stroke-width="0.5" stroke-linecap="butt" stroke-linejoin="miter"/><path d="M325.35023,17.27873h-3.47076v-4.67423h-3.6201v4.67423h-3.47076v-5.81603h-3.50556l8.67957,-8.35744l8.67956,8.35744h-3.29195z" fill="url(#color-14)" stroke-opacity="0.48235" stroke="#ffffff" stroke-width="0" stroke-linecap="butt" stroke-linejoin="miter"/><path d="M485.97606,18.04459l-1.37128,-1.46181v-13.05607c0,0 1.98413,-0.6922 6.06637,-0.70114c5.17961,-0.01133 6.47233,0.70114 6.47233,0.70114v15.75257l-9.82972,-0.02191z" fill="url(#color-15)" stroke="#303032" stroke-width="0" stroke-linecap="butt" stroke-linejoin="miter"/><path d="M486.47393,18.04459l-1.37128,-1.46181v-13.17643c0,0 1.48626,-0.57184 5.5685,-0.58078c5.17961,-0.01133 6.47233,0.70114 6.47233,0.70114v15.75257l-9.33185,-0.02191z" fill="url(#color-16)" stroke="#303032" stroke-width="0" stroke-linecap="butt" stroke-linejoin="miter"/><path d="M490.87413,18.55722l-2.46845,-1.80821h4.9369z" fill="url(#color-17)" stroke="none" stroke-width="0" stroke-linecap="butt" stroke-linejoin="miter"/><path d="M486.45667,15.30278v-11.09091h8.63637v11.09091z" fill="#ffffff" stroke="#303032" stroke-width="0" stroke-linecap="butt" stroke-linejoin="miter"/></g></g></svg>