<svg version="1.1" xmlns="http://www.w3.org/2000/svg" xmlns:xlink="http://www.w3.org/1999/xlink" width="1277.5773" height="117.78174" viewBox="0,0,1277.5773,117.78174"><defs><linearGradient x1="686.17904" y1="251.91305" x2="686.17904" y2="345.2954" gradientUnits="userSpaceOnUse" id="color-1"><stop offset="0" stop-color="#8ab8db" stop-opacity="0.74902"/><stop offset="1" stop-color="#2e46d9" stop-opacity="0.65098"/></linearGradient><linearGradient x1="589.73271" y1="251.91305" x2="589.73271" y2="345.2954" gradientUnits="userSpaceOnUse" id="color-2"><stop offset="0" stop-color="#8ab8db" stop-opacity="0.74902"/><stop offset="1" stop-color="#2e46d9" stop-opacity="0.65098"/></linearGradient></defs><g transform="translate(0.83276,-243.69012)"><g stroke="#000000" stroke-width="0" stroke-miterlimit="10"><path d="M546.10552,360.00128l-546.93828,-0.7594c0,0 0.86423,-115.65824 2.468,-115.55168c0.22628,0.01503 48.95697,7.31343 52.92175,8.34235c22.04674,5.72147 90.2442,25.21984 96.56247,26.62965c22.93561,5.11769 66.2735,15.45782 81.68053,17.5837c11.96259,1.65061 36.8289,7.05651 40.80952,7.34897c22.66511,1.66521 56.78715,3.86907 70.0258,3.14291c19.6592,-1.07835 41.5623,-2.581 52.06158,-4.33477c39.90996,-6.66646 100.13926,-16.96137 118.52916,-21.37228c25.89047,-6.20997 51.97376,-12.45604 56.92271,-13.6042c16.92412,-3.9264 66.86851,-15.51349 66.86851,-15.51349l0.7353,109.55883z" fill="url(#color-1)"/><path d="M637.15919,361.47187l0.73529,-109.55883c0,0 49.94439,11.58709 66.86852,15.51349c4.94895,1.14816 31.03224,7.39423 56.92272,13.6042c18.3899,4.41091 78.6192,14.70582 118.52916,21.37228c10.49928,1.75377 32.40239,3.25642 52.06159,4.33477c13.23865,0.72616 47.36069,-1.4777 70.0258,-3.14291c3.98062,-0.29246 28.84693,-5.69836 40.80952,-7.34897c15.40702,-2.12588 58.74492,-12.46601 81.68053,-17.5837c6.31827,-1.40981 74.51573,-20.90818 96.56247,-26.62965c3.96478,-1.02892 52.69547,-8.32732 52.92175,-8.34235c1.60378,-0.10656 2.468,115.55168 2.468,115.55168l-546.93828,0.7594z" fill="url(#color-2)"/></g></g></svg>