<svg version="1.1" xmlns="http://www.w3.org/2000/svg" xmlns:xlink="http://www.w3.org/1999/xlink" width="1284.0176" height="109.55883" viewBox="0,0,1284.0176,109.55883"><defs><linearGradient x1="685.00303" y1="249.99124" x2="685.00303" y2="343.37359" gradientUnits="userSpaceOnUse" id="color-1"><stop offset="0" stop-color="#99caff" stop-opacity="0.36471"/><stop offset="1" stop-color="#abd5ff" stop-opacity="0.31373"/></linearGradient></defs><g transform="translate(2.00877,-249.99124)"><g fill="url(#color-1)" stroke="#000000" stroke-width="0" stroke-miterlimit="10"><path d="M544.9295,358.07946l-546.93828,1.22192c0,0 1.8012,-108.99592 2.35366,-108.91422c6.60545,0.97688 66.63164,8.52651 103.29866,17.35299c22.04674,5.72147 39.98163,7.59043 46.29991,9.00024c22.93561,5.11769 66.27351,15.45783 81.68053,17.5837c11.96259,1.65061 36.8289,7.05651 40.80952,7.34897c22.66511,1.66521 56.78715,3.86907 70.0258,3.14291c19.6592,-1.07835 41.5623,-2.581 52.06158,-4.33477c39.90996,-6.66646 100.13926,-16.96137 118.52916,-21.37228c25.89047,-6.20997 34.80604,-9.5754 57.4987,-13.73724c22.69266,-4.16184 44.21096,-10.63673 73.24011,-10.2403c29.02916,0.39643 63.95049,3.88376 100.19605,12.60878c22.04674,5.72147 39.98163,7.59043 46.2999,9.00024c22.93561,5.11769 66.27351,15.45783 81.68053,17.5837c11.96259,1.65061 36.8289,7.05651 40.80952,7.34897c22.66511,1.66521 56.78715,3.86907 70.0258,3.14291c19.6592,-1.07835 41.5623,-2.581 52.06158,-4.33477c39.90996,-6.66646 100.13926,-16.96137 118.52916,-21.37228c25.89047,-6.20997 51.97376,-12.45604 56.92271,-13.6042c16.92412,-3.9264 70.95942,-15.51349 70.95942,-15.51349l0.7353,109.55883l-96.73796,-1.4706l-543.60511,1.21447l0.00172,0.25612z"/></g></g></svg>